<svg xmlns="http://www.w3.org/2000/svg" width="215.094" height="145" viewBox="0 0 215.094 145">
  <g id="Group_384" data-name="Group 384" transform="translate(-1970.985 -4099)">
    <path id="Path_856" data-name="Path 856" d="M2019.632,4158.453c6.138,0,14.069-2.208,19.586-4.828-1.034,3.241-1.586,6.9-4.276,18.551a39.716,39.716,0,0,1-2.133,7.077,7.015,7.015,0,0,1,.745,2.529l.01.11V4182c0,2.634-1.974,4.3-6.772,7.434-.085.492-.167,1.014-.247,1.561a12.7,12.7,0,0,0,1.363.075c7.517,0,13.724-4.552,16.552-14.069,2.138-7.1,4.965-23.31,6.965-29.173a19.531,19.531,0,0,0,7.449,1.242c5.172,0,9.448-2.9,9.448-7.587a3.282,3.282,0,0,0-.9-2.275c-7.862-.138-12.551-.966-29.724-4.9a60.491,60.491,0,0,0-14.207-1.931c-7.1,0-14,7.38-14,15.724C2009.494,4154.935,2013.425,4158.453,2019.632,4158.453Zm2.69-18c2.965,0,7.931,1.1,20.69,5.311a13.22,13.22,0,0,0-2.483,4.138,3.709,3.709,0,0,0-2.9-1.035c-1.655,0-8,1.31-12.966,1.31-4.137,0-6.689-1.655-6.689-5.241A4.129,4.129,0,0,1,2022.322,4140.452Z" fill="#f2f2f2"/>
    <path id="Path_857" data-name="Path 857" d="M2055.7,4161.556a4.09,4.09,0,0,0,1.034,2.827,34.092,34.092,0,0,1-4.276,7.1,2.892,2.892,0,0,0-.482,1.655,2.626,2.626,0,0,0,2.758,2.69,40.99,40.99,0,0,0,6-9.035c1.517.621,2.276,1.035,2.276,1.862,0,1.793-3.379,7.656-3.379,12.207,0,3.931,2.345,5.793,6.552,5.793,3.545,0,8.789-3.832,12.728-7.972.772,4.351,3.317,6.593,6.581,6.593,2.414,0,5.586-1.724,7.793-8a20.736,20.736,0,0,0-.207,2.69c0,4.413,1.931,5.655,4.966,5.655,2.789,0,7.625-3.5,11.327-7.371a17.452,17.452,0,0,0-.156,2.337c0,3.792,1.379,5.586,5.448,5.586,3.342,0,8.051-2.569,11.679-6.263a11.3,11.3,0,0,1,8.706-4.355,9.919,9.919,0,0,1,1.4.1c.438-2.975,3.327-13.658,5.045-19.828,5.172-9.725,6.552-13.1,6.552-16.138,0-3.518-1.862-4.9-4.828-4.9-5.448,0-10.345,5.586-11.586,14.9-.621,4.69-1.862,11.173-2.69,15.656-.177.927-.523,2.378-.912,4.073-3.925,5.218-6.557,7.03-7.432,7.03-.621,0-.965-.276-.965-1.034,0-1.586.9-3.793,2.827-8.552,1.242-2.9,2.414-5.793,2.414-7.586,0-2.69-.276-4.414-3.448-4.414-4.276,0-10.414,7.241-10.414,11.311a14.569,14.569,0,0,0,.22,2.655c-4.1,5.535-7.394,7.9-8.7,7.9-.551,0-.827-.207-.827-1.586,0-1.793.9-6.138,3.31-14.827a18.43,18.43,0,0,0,.759-4.552c0-2.414-2.552-5.587-7.242-5.587a3.17,3.17,0,0,0-2.413.9l-.207,4a2.327,2.327,0,0,0-1.794-.483c-5.835,0-12.853,7.752-14.876,16.4-3.2,4.1-6.663,6.907-8.226,6.907-.9,0-1.172-.69-1.172-1.655,0-1.725,1.379-5.1,2.965-8.277,1.1-2.206,1.862-3.862,1.862-5.241,0-1.655-.827-2.621-4.9-3.793a18.845,18.845,0,0,1-3.242-1.241,9.81,9.81,0,0,1,4-3.449,4.433,4.433,0,0,0,.207-1.379c0-1.862-1.586-2.965-3.931-2.965C2062.94,4149.9,2055.7,4156.728,2055.7,4161.556Zm39.861-2-2.207,14.345a3.858,3.858,0,0,1-2.759,1.724c-.965,0-1.793-.276-1.793-2.828C2088.8,4167.487,2092.111,4161.762,2095.56,4159.556Z" fill="#f2f2f2"/>
    <path id="Path_858" data-name="Path 858" d="M2125.214,4150.246c3.31-4.07,4.621-6.76,4.621-8.415,0-2.137-3.1-5.172-5.863-5.172-2.206,0-3.379,2-3.379,7.586C2120.593,4148.246,2122.524,4150.246,2125.214,4150.246Z" fill="#f2f2f2"/>
    <path id="Path_859" data-name="Path 859" d="M2139.221,4176.611a6.316,6.316,0,0,1,2.892,4.54c4.233-3.539,7.652-8.145,7.652-11.043a2.524,2.524,0,0,0-2.621-2.345C2144.43,4171.99,2141.442,4175.265,2139.221,4176.611Z" fill="#f2f2f2"/>
    <path id="Path_860" data-name="Path 860" d="M2180.975,4202.761a9.57,9.57,0,0,1,3.655.827,5.512,5.512,0,0,0,1.449-3.724c0-3.31-2.345-5.034-6.345-5.034-6.275,0-10.965,4-10.965,9.793,0,4.275,4,12.62,4,16.137a1.412,1.412,0,0,1-1.448,1.586c-1.586,0-3.931-2.069-4.483-5.1a5.431,5.431,0,0,0,1.793-3.793c0-1.724-1.931-4.828-4.344-4.828-2.371,0-3.621,3.294-4.156,6.665-3.476,3.355-7.527,5.4-10.878,5.4-2.689,0-3.31-1.724-3.31-4.828,9.448-2.137,12.827-6.62,12.827-12.413,0-4.827-2.62-7.1-7.379-7.1-6.07,0-13.614,8.744-14.96,18.143-2.826,3.6-5.6,5.925-7.246,5.925-.62,0-.966-.276-.966-1.034,0-1.725,3.242-13.724,5.1-20.413l.472-.89c.238-.451.465-.883.687-1.305l.2-.373.278-.536.129-.247.288-.559c.033-.065.068-.132.1-.2l.285-.559c.027-.054.056-.11.083-.163l.314-.622.034-.067c.083-.166.163-.326.242-.487.03-.059.061-.121.09-.18l.28-.569.029-.06c.085-.175.167-.344.248-.512l.047-.1c.077-.161.151-.318.224-.473l.051-.108q.129-.274.249-.536l.008-.017c.078-.17.153-.336.227-.5l.015-.033c.077-.172.151-.339.222-.5l0,0q.108-.246.207-.483l0,0c.063-.15.123-.3.182-.439l.012-.03c.058-.143.114-.284.168-.422l.01-.025c.053-.135.1-.267.152-.4l.012-.032c.05-.133.1-.264.143-.392l.007-.019c.045-.128.088-.253.129-.376l.007-.019q.063-.187.118-.367l.005-.013c.037-.12.072-.238.106-.354l0-.012c.033-.114.064-.225.093-.335l.005-.018c.029-.112.057-.222.083-.331l0-.01c.025-.107.049-.212.071-.316l0-.015q.033-.156.06-.309l0-.011q.027-.152.05-.3l0-.012q.022-.149.04-.295v-.009c.012-.1.022-.192.031-.287v-.011c.009-.1.016-.191.022-.286v-.006c.006-.1.01-.191.013-.286h0c0-.108.006-.214.006-.32,0-3.517-1.862-4.9-4.827-4.9-.188,0-.376.008-.563.022-.059,0-.118.011-.178.017-.128.012-.255.026-.382.044-.069.009-.137.021-.205.033-.119.02-.238.043-.356.068l-.2.046c-.123.03-.245.064-.367.1-.06.017-.12.034-.18.053-.155.049-.308.1-.461.162l-.075.027q-.268.105-.532.23c-.045.021-.089.045-.134.067-.13.064-.26.131-.388.2l-.173.1c-.116.067-.231.136-.345.209l-.174.114c-.117.077-.232.158-.346.241l-.155.113q-.2.155-.4.321c-.027.022-.055.043-.082.066-.163.139-.324.283-.483.434l-.065.064c-.134.129-.265.261-.4.4-.044.046-.087.094-.13.141q-.162.175-.321.36l-.138.165c-.1.125-.205.252-.306.382-.042.055-.085.109-.127.165q-.168.223-.33.459c-.027.038-.055.076-.082.115a17.124,17.124,0,0,0-.9,1.485l-.078.143c-.154.291-.3.591-.447.9-.023.048-.044.1-.066.146-.138.3-.272.612-.4.931-.009.023-.019.046-.029.069-.13.331-.253.673-.372,1.02l-.069.206c-.115.348-.226.7-.328,1.067-.012.043-.023.087-.035.13-.094.341-.183.69-.265,1.045-.015.064-.031.128-.046.193-.085.377-.163.763-.235,1.155-.015.082-.029.165-.044.248-.071.407-.137.819-.194,1.241-.621,4.69-1.862,11.172-2.69,15.654-.179.943-.534,2.43-.931,4.16-3.875,4.9-9.115,8.047-13.274,8.047-2.69,0-3.311-1.724-3.311-4.828,9.449-2.137,12.827-6.62,12.827-12.413,0-4.827-2.62-7.1-7.379-7.1-6.066,0-13.607,8.735-14.958,18.129a40.16,40.16,0,0,1-7.386,7.111c.483-4.275,1.242-9.654,2.069-13.585,1.034-5.035,2.276-7.517,2.276-10.207,0-2.413-3.379-5.586-7.724-5.586a4.1,4.1,0,0,0-2.621.966c0,1.655-.137,4.482-.413,6.965a2.328,2.328,0,0,0-1.794-.483c-5.375,0-12.333,6.685-14.333,14.39-3.459,4.26-6.6,6.644-7.734,6.644-.621,0-.966-.276-.966-1.035,0-1.724,2.207-6.62,3.448-9.654a19.517,19.517,0,0,0,2-7.586,4.415,4.415,0,0,0-4.758-4.759c-3.034,0-7.793,3.1-12.827,11.793a25.867,25.867,0,0,0,2.758-9.93c0-2.07-.62-2.9-2.965-2.9-4.276,0-10.413,7.241-10.413,11.31a12.485,12.485,0,0,0,.479,3.7c-4.667,6.352-8.374,8.234-9.307,8.234-1.034,0-1.034-1.586-1.034-4.551a7.8,7.8,0,0,0,2.965-5.517,3,3,0,0,0-2.689-3.31c.02-.349.04-.7.061-1.06.008-.135.017-.272.025-.408.013-.218.027-.437.041-.658.01-.175.022-.351.033-.527s.023-.364.035-.547q.021-.308.042-.616c.009-.143.019-.286.029-.429.017-.239.033-.478.051-.718.005-.078.011-.155.017-.233.095-1.309.2-2.631.319-3.935l0-.02c.217-2.394.476-4.73.787-6.825h0c.061-.41.124-.809.188-1.2.008-.043.014-.087.022-.129.067-.4.137-.8.209-1.176,5.449-3.517,6.552-4.621,6.552-6a4.179,4.179,0,0,0-.062-.428c-.025-.13-.056-.261-.093-.391-.017-.06-.04-.119-.06-.179s-.047-.148-.075-.222-.053-.123-.079-.185-.06-.14-.093-.21-.065-.122-.1-.183-.073-.136-.114-.2-.076-.119-.115-.178-.087-.131-.134-.2-.088-.113-.133-.169-.1-.126-.156-.187-.1-.107-.149-.16-.117-.119-.178-.177-.11-.1-.166-.148-.132-.111-.2-.165-.12-.091-.182-.135-.148-.1-.225-.151-.129-.082-.2-.121-.164-.091-.249-.134-.139-.072-.212-.106c-.089-.041-.182-.078-.275-.116-.074-.03-.148-.06-.225-.088-.1-.035-.2-.066-.305-.1-.078-.023-.154-.048-.234-.069-.111-.029-.228-.051-.344-.075-.078-.016-.154-.034-.234-.047-.132-.022-.271-.037-.409-.052-.07-.008-.137-.019-.208-.025-.213-.017-.431-.026-.657-.026s-.462.01-.687.024l-.13.01c-.22.017-.437.039-.65.069h0c-.282.04-.557.093-.827.156l-.056.013q-.393.094-.768.22l-.056.019c-.253.087-.5.182-.741.289l-.007,0a9.07,9.07,0,0,0-1.378.764l-.069.046q-.3.205-.584.434l-.083.069c-.187.153-.37.313-.546.481-.02.019-.039.039-.06.058a11.11,11.11,0,0,0-1.064,1.193l-.037.046q-.244.322-.47.661c-.018.027-.036.052-.053.079-.146.221-.285.449-.418.682l-.059.1q-.2.347-.373.707l-.055.112c-.117.242-.229.488-.334.739-.016.037-.031.074-.047.112q-.158.381-.3.773c-.012.034-.024.068-.035.1-.095.269-.185.541-.268.817l-.019.068q-.129.434-.239.876c-6.965,10-14.275,20.758-18.275,26-4.965.276-9.034.483-12.9.552-.483-1.587-1.724-2.345-3.655-2.345-5.172,0-9.1,4.9-9.1,10.482,0,7.034,4,11.1,10.69,11.1,6.206,0,10.964-3.31,18.688-14.482,3.517-.138,8.068-.414,11.034-.69-.207,3.38-.207,4.345-.207,6.552,0,3.931,1.793,5.861,6.069,5.861,3.976,0,9.924-4.336,14.1-8.824.272,3.933,3.02,7.307,6.73,7.307,1.585,0,2.069-.206,2.758-.9a85.645,85.645,0,0,1,1.586-13.1c2.69-3.724,4.965-4.758,5.586-4.758a.732.732,0,0,1,.828.827c0,1.517-3.517,8.483-3.517,13.034,0,3.793,1.379,5.586,5.447,5.586,3.594,0,8.89-3.739,12.808-7.771.868,3.977,3.405,5.771,6.571,5.771,3.241,0,6.276-3.379,7.172-5.1-.483,5.172-1.034,9.792-1.241,11.379-.276,2-.9,2.689-1.931,2.689-2.207,0-5.31-3.517-8.138-7.861a6.132,6.132,0,0,0-5.654,6.137c0,5.448,6.689,9.448,12.275,9.448,5.447,0,11.447-3.172,12.689-12.482.206-1.311.482-2.759.482-2.759a56.736,56.736,0,0,0,8.144-7.157c1.044,4.79,4.094,7.433,9.442,7.433,4.922,0,10.608-3.305,14.74-7.13-.074.747-.12,1.456-.12,2.1,0,3.586,1.448,5.31,5.448,5.31s9.351-3.549,13.21-7.567c1.074,4.7,4.115,7.291,9.41,7.291,4.659,0,10-2.963,14.067-6.525a9.02,9.02,0,0,0,9.242,7.353c6.207,0,13.309-3.242,13.309-11.586,0-5.034-3.931-10.758-3.931-13.861C2178.768,4203.175,2179.527,4202.761,2180.975,4202.761Zm-31.308.827c.827,0,1.379.828,1.379,2.276,0,2.069-.827,4.207-4.689,4.9C2146.839,4205.933,2148.7,4203.588,2149.667,4203.588Zm-42.688,0c.828,0,1.379.828,1.379,2.276,0,2.069-.827,4.207-4.689,4.9C2104.152,4205.933,2106.014,4203.588,2106.979,4203.588Zm-116.926,17.145c-.348.352-.68.668-1,.951s-.625.532-.923.752a8.1,8.1,0,0,1-1.286.791,5.614,5.614,0,0,1-1.232.434,5.422,5.422,0,0,1-.826.119c-.139.01-.28.014-.422.014a2.617,2.617,0,0,1-1.28-.307,2.224,2.224,0,0,1-.6-.486,2.652,2.652,0,0,1-.439-.719,3.566,3.566,0,0,1-.19-.611,4.564,4.564,0,0,1-.084-.528c-.018-.187-.028-.383-.028-.59,0-.065,0-.142.007-.227s.012-.179.022-.278c.013-.131.03-.271.052-.411a4.891,4.891,0,0,1,.126-.6h1.071c1.084,0,2.209-.005,3.412-.017.8-.009,1.637-.022,2.519-.041s1.808-.046,2.791-.08C1991.135,4219.6,1990.576,4220.205,1990.053,4220.733Zm23.758-24.041c-.078.375-.155.783-.231,1.217s-.151.894-.225,1.374q-.075.48-.147.984t-.143,1.026c-.07.521-.139,1.053-.206,1.59q-.066.538-.131,1.079c-.022.18-.043.36-.064.54-.042.36-.083.719-.123,1.075s-.079.71-.117,1.059c-.057.524-.111,1.037-.163,1.533-.017.165-.034.329-.051.49q-.049.484-.095.941c-.069.683-.131,1.314-.184,1.871-.018.185-.036.362-.052.531l-.535.058-.591.058c-1.231.115-2.736.225-4.159.32l-.932.06c-.3.02-.6.038-.886.055h0c.569-.948,1.276-2.146,2.052-3.477l.594-1.021c.4-.7.819-1.416,1.239-2.147.286-.5.574-1,.861-1.5l.056-.1c.494-.866.984-1.732,1.459-2.575l.021-.038c.3-.531.59-1.052.872-1.558l.008-.015.006-.011c.341-.613.667-1.2.973-1.762l.039-.071c.141-.259.278-.51.409-.754l.069-.127c.131-.242.258-.478.377-.7Zm64.066,21.171a3.711,3.711,0,0,1-2.827,1.38c-.966,0-1.656-.345-1.656-2.9,0-3.931,2.276-9.517,6.207-11.655C2079.049,4207.933,2078.428,4213.657,2077.877,4217.863Z" fill="#f2f2f2"/>
    <path id="Path_861" data-name="Path 861" d="M2074.07,4110.9l.568,1.213.413,1.264.258,1.264.129,1.316v1.316l-.078,1.342-.18,1.342-.232,1.341-.284,1.368-.336,1.316-.335,1.342-.361,1.29-.336,1.29-.309,1.238-.078.387-.077.362-.078.361-.051.361-.052.335-.052.31-.051.336-.026.309-.026.31-.026.284v.825l.026.258.026.233.026.258.1.619.155.593.206.594.233.567.283.568.31.568.361.516.387.516.413.464.439.465.49.438.516.387.542.362.568.309.619.284.619.232.155.052.206.077.233.052.258.052.283.077.336.052.361.077.387.052.439.077.438.077.491.078.541.077.542.078.594.1.619.077.645.1.645.1.619.077.62.077.619.078.593.077.568.1.568.13.567.154.516.181.516.232.491.284.464.335.439.413.413.465.387.542.361.645h.051l.413-.723.465-.593.49-.516.49-.439.568-.335.594-.284.645-.232.722-.207.774-.155.826-.129.929-.129.98-.129,1.084-.155,1.187-.154,1.264-.207,1.368-.258.49-.077.464-.1.465-.1.438-.1.439-.155.413-.129.413-.18.387-.181.361-.181.361-.232.361-.206.336-.258.309-.232.31-.284.31-.258.284-.31.309-.361.284-.361.284-.387.258-.387.232-.388.207-.387.206-.412.155-.413.155-.413.129-.413.1-.439.1-.438.052-.439.051-.439.026-.464v-1.032l-.026-.155v-.155l-.026-.129v-.154l-.025-.129-.026-.155-.026-.155-.052-.181-.025-.18-.052-.207-.052-.232-.051-.258-.078-.284-.284-1.316-.335-1.367-.361-1.342-.361-1.368-.362-1.367-.309-1.368-.284-1.367-.181-1.342-.129-1.342-.025-1.316.1-1.29.258-1.264.387-1.239.593-1.186.749-1.162,1.006-1.135-6.528-9.6-1.523.567-1.6.465-1.652.438-1.754.362-1.806.309-1.832.207-1.91.154-1.935.078-1.961-.026-1.961-.077-1.987-.181-1.987-.284-1.986-.361-1.987-.464-1.935-.568-1.91-.671-6.657,9.573.929,1.135Zm5.7-9.5,1.444.464,1.574.413,1.652.361,1.729.336,1.806.232,1.858.206,1.883.129,1.909.078h1.91l1.909-.078,1.884-.129,1.858-.232,1.78-.31,1.7-.387,1.625-.464,1.549-.568,4.9,7.148-.49.7-.439.7-.387.722-.309.749-.284.748-.258.748-.181.748-.155.775-.1.774-.052.774-.025.774.025.774.078.774.1.8.129.774.207.774.309,1.238.284,1.136.258,1.109.258,1.007.232.954.207.9.206.826.155.748.155.7.155.619.1.568.1.49.077.439.052.361.026.284.026.232v.542l-.052.542-.077.542-.1.516-.18.541-.207.516-.232.517-.284.49-.335.49-.361.439-.413.438-.439.413-.49.361-.542.336-.568.309-.593.259-.181.051-.258.052-.335.077-.413.078-.439.077-.49.077-.49.1-.516.077-.516.077-.49.078-.439.077-.413.078-.361.051-.284.052-.232.026h-.078l-.283.051-.258.026-.259.052-.258.025-.232.026-.258.026-.232.026-.232.026-.258.051-.258.026-.258.026-.258.051-.284.052-.31.026-.309.052-.336.051-.309.078-.31.051-.31.077-.309.078-.31.1-.31.1-.309.1-.284.129-.31.129-.284.129-.258.154-.258.181-.258.181-.232.18-.206.207-.181.206-.387-.284-.335-.258-.336-.232-.335-.206-.31-.181-.31-.155-.309-.155-.284-.1-.284-.1-.284-.1-.283-.078-.284-.051-.258-.052-.258-.051-.284-.052-.258-.026-.284-.026-.31-.025-.361-.052-.361-.052-.413-.051-.439-.078-.464-.077-.49-.052-.542-.077-.568-.1-.593-.078-.62-.077-.645-.1-.7-.129-.723-.1-.748-.1-.464-.1-.439-.1-.439-.129-.413-.181-.361-.181-.387-.18-.335-.206-.31-.233-.309-.232-.284-.232-.258-.232-.233-.233-.206-.232-.181-.206-.18-.207-.129-.206-.31-.516-.258-.49-.232-.491-.181-.464-.129-.465-.1-.438-.077-.439-.026-.438v-.852l.051-.413.026-.413.078-.387.077-.413.077-.412.1-.413.1-.49.1-.491.129-.516.1-.49.129-.516.129-.542.1-.516.129-.516.129-.542.129-.516.129-.542.129-.542.129-.567.129-.542.154-.542.129-.568.1-.387.077-.361.077-.31.052-.283.078-.258.051-.258.052-.207.026-.232.025-.207.026-.232.026-.206.026-.232.026-.258.025-.258v-.284l.026-.31.026-.722-.052-.723-.077-.722-.1-.7-.155-.671-.181-.645-.18-.619-.207-.594-.232-.567-.232-.516-.232-.465-.233-.413-.232-.387-.206-.335-.181-.258-.181-.206Z" fill="#f2f2f2"/>
    <path id="Path_862" data-name="Path 862" d="M2092.364,4111.23l-.077.129-.232.31-.1.1-.1.155-.1.129-.077.1-.052.1-.077.1.052.1.1-.026.077-.077-.052.464.077.258.1-.026.1-.052.129-.078.077-.1.155-.155.1.026-.052.207-.077.1-.052.129-.1.155-.077.129-.052.1-.077.1-.052.129-.077.155-.1.18-.052.129-.077.1-.155.31-.078.1-.052.1-.077.1-.258.335-.026.1-.052.1.077.078h.1v.1l.052.1.1-.051.1-.026-.052.1-.1.052-.077.1-.052.1-.026.1-.1.207-.077.1-.026.1.052.1-.335.335-.026.1v.155l.052.1.1.052.129.026.129-.026.1-.026.129-.1.155-.129.232-.155-.052.1-.077.1-.052.1-.1.155-.206.258-.078.1-.077.129-.155.207-.077.077-.129.155-.1.155-.077.1-.077.077-.129.1-.1.129-.129.1-.129.129-.129.1-.077.077-.129.1-.155.1-.1.1.026.1.1.026h.335l.129-.026.1-.026.1-.052h.1l-.026.1-.1.077-.026.1.052.1-.077.1-.052.1-.077.077-.052.1-.077.1-.052.1v.207l-.026.1-.052.1.026.1h.1l.284-.181.155-.1.155-.078.129-.077.1-.078.207-.1.1-.078-.026.1-.155.155-.232.31-.1.129-.077.129-.155.207-.077.078-.077.129-.1.077-.077.1-.052.1-.077.078-.077.1-.052.1-.1.129-.077.129-.1.1-.077.129-.1.1-.077.1-.078.078-.1.077-.077.078-.052.1.026.129.1.078.1.052h.129l.1-.052.181-.155.077-.078h.1l.026.1h.1l.1-.026.1-.052.1-.129.1.052-.077.155-.1.155-.129.155-.077.1-.077.078-.077.1-.722.723.026.1.129.052-.335.258-.1.078-.181.181-.077.129-.026.1v.129l.026.1.052.1.077.078-.207.155-.052.1-.026.1v.1l.052.129.129.026.206.052.516-.129.206-.1.1-.026.1.052.077.078h.1l.207-.052.1-.078.1-.051.077.077.1-.026.129-.077.129-.1.1-.077.078.077.052.129h.129l.129-.026.207-.1.155-.155.155-.206.207-.155.1-.052.129-.026-.052.1-.026.1.077.077.258-.129.181-.129.1-.078.077-.077.1-.078.077-.077.129-.155.077-.078h.1l.052.1v.413l-.026.1v.181l-.026.155v3.509l-.026.1-.1.207-.258.207-.155.1-.181.1-.129.051-.1.052-.516.207-.465.181-.387.155-.31.129-.284.1-.206.1-.181.077-.155.052-.1.052-.181.077-.206.1-.077.1.026.1.1.026.31-.052.129-.025h.438l.129.025.1.026h.516l.1-.026h.1l.129-.025h.129l.129-.026h.129l.155-.026.1-.026h.826l.129.026h.129l.258.052h.129l.129.051.155.026.129.026.18.052h.516l.129-.026.1-.026h.129l.1-.026.258-.052.1-.025h.129l.129-.026.1-.026.181-.026h.181l.155-.026h.361l.129.026.31.078h.206l.1-.026h.1l.1-.026h.387l.129.026h.1l.207.051h.1l.077-.077-.026-.1-.181-.181-.258-.129-.1-.078-.258-.1-.155-.078-.155-.052-.155-.077-.18-.078-1.91-.877-.077-.1-.052-.1-.026-.155-.026-.1v-.1l-.026-.129v-.645l-.026-.181v-.439l-.026-.232v-1.084l.026-.206v-.413l.026-.207.026-.232v-.207l.052-.181.026-.232.026-.207.1.026.1.181.207.413.077.129.1.078.361.052.1.051.155.052.155.077.129.078.155.052h.1l-.026-.1-.052-.1v-.1l.155.155.1-.052h.1l.077.077.1.026.1-.026h.1l.1-.025.1.1.077.129.1.078.077.1.1.052.077.077.258.129.129.051h.1l.1-.077-.052-.1-.155-.155h.335l.1-.026.258-.1.1-.026.1.026v.1l.051.1.078.1.077.078.1.077.1.026h.1l.052-.1-.052-.1-.026-.1v-.1l.077-.078.052-.1.052-.129.077-.1v-.129l-.026-.129-.181-.181-.077-.1-.077-.077-.232-.31-.1-.181-.077-.181-.077-.129-.052-.129-.078-.129-.026-.1.1.026.1.051.129.052.129.078.1.025.155.052h.1l.026-.1-.052-.129-.052-.1-.078-.1-.077-.129-.1-.129-.31-.464-.077-.077-.1-.129-.155-.258.1-.026h.207l.026-.1-.1-.078-.129-.077-.129-.1-.1-.129-.077-.077-.1-.129-.077-.1-.1-.155-.077-.1-.077-.129-.052-.129-.077-.1-.077-.129-.31-.413-.026-.1.026-.1h.1l.077.078.207.1.1.026h.129l.1-.052v-.1l-.026-.155.31.155h.1l.1.026.1-.026.1-.078-.026-.1-.129-.077-.129-.052-.1-.078-.1-.051-.129-.078-.1-.129-.129-.155-.1-.1-.1-.129-.077-.1-.1-.129-.077-.1-.1-.1-.155-.207-.155-.258-.1-.129-.077-.129-.1-.129-.1-.155.077-.078.232.232.129.1.1.052h.1v-.1l.026-.1.1.052.206.052.1-.052-.026-.1-.052-.1-.387-.387-.155-.207-.077-.129-.1-.129-.232-.387-.155-.207-.052-.1-.026-.1.1-.051-.052-.1-.077-.1-.1-.078-.1-.051-.1-.078-.077-.077-.026-.1.1.052.1.026.129.051.129.026.1-.051.026-.1-.232-.284-.594-.593-.052-.1-.077-.1-.077-.129-.026-.1-.052-.1.052-.1.31.077.1.077.1.026.129.052.1-.078-.052-.129-.077-.077-.078-.1-.077-.077-.155-.207-.052-.129-.052-.1-.1-.258-.077-.1-.258-.465-.1-.206-.207-.361-.077-.181-.077-.129-.1-.258-.052-.1-.052-.155.026-.129.1.026.1.051.31.078.1-.078-.052-.1-.155-.155-.077-.1-.1-.1-.1-.155-.077-.155-.1-.181-.052-.129-.1-.207-.052-.129-.052-.1-.026-.129-.052-.129-.077-.155-.026-.1-.078-.155-.077-.129-.077-.155-.31-.387-.129-.052-.052.1-.026.1-.052.1-.052.129-.052.1-.026.1-.052.1-.026.1-.1.207-.077.18-.129.258-.078.129-.1.207-.077.129-.232.464-.077.1-.1.206Z" fill="#f2f2f2"/>
    <path id="Path_863" data-name="Path 863" d="M2079.257,4114.765v.052h.258v.026h.052v.026h.026v.026l.026.026v.025l.026.026v.078l.026,9.985.026.284.052.284.077.284.1.31.155.335.181.31.232.31.258.284.31.258.361.258.387.207.413.155.49.129.542.052h.568l.619-.052.258-.025.206-.078.232-.052.207-.077.206-.1.207-.1.18-.1.155-.129.181-.129.155-.155.155-.181.129-.181.129-.18.129-.207.1-.207.1-.232.026-.077.026-.078.052-.1.026-.078.026-.077.026-.078.026-.077v-.1l.026-.078.026-.078v-.077l.026-.078v-10.424l.026-.026v-.026h.026l.026-.026.026-.026h.026l.026-.026.026-.025h.026l.026-.026h.052l.026-.026h.619v-1.006h-.026v-.026l-.026-.026-3.019.1h-.026v1.006h.7l.026.025.026.026h.026l.026.026.026.026v.052l.026.026.026.051v.052l.026.051v.181l.026.052v7.07l-.026.284v1.574l-.026.181v.387l-.026.1v.1l-.026.078v.051l-.155.516-.206.413-.258.335-.284.258-.335.155-.361.129-.361.025-.361-.025-.387-.078-.335-.181-.31-.207-.284-.258-.232-.335-.181-.361-.1-.438-.052-.464.026-9.625v-.077h.026v-.026h.026v-.026h.026l.026-.026.31-.1v-.955l-.077-.051-3.019.051Z" fill="#f2f2f2"/>
    <path id="Path_864" data-name="Path 864" d="M2104.285,4113.63h-.49l-.155.026-.129.026-.413.1-.387.129-.361.18-.31.181-.284.207-.258.232-.207.232-.18.258-.155.258-.1.258-.1.284-.052.258-.052.284v.258l.026.258.052.232.052.207.077.207.077.181.1.18.1.181.129.155.129.181.155.181.181.155.181.181.232.207.232.181.258.206.284.232.31.232.335.232.206.155.207.181.206.155.207.155.206.129.207.155.206.155.232.181.18.155.207.181.206.155.181.206.206.181.207.207.181.207.181.232.258.387.155.361.129.361.052.335.026.335-.026.284-.078.31-.1.258-.129.258-.155.207-.181.206-.18.181-.181.155-.207.129-.155.1-.181.052-.181.051-.206.026-.258.026h-.49l-.284-.026-.284-.026-.258-.051-.284-.1-.258-.1-.284-.129-.232-.181-.207-.181-.206-.207-.155-.258-.129-.31-.026-.052-.026-.052v-.078l-.026-.051-.026-.052v-.051l-.026-.052-.026-.078v-.051l-.026-.052v-.284l-.026-.078.026-.077H2100.8v3.715h.026v.026h1.135l.026-.026v-.1l-.026-.078-.026-.052v-.051l-.026-.052v-.155l.026-.052v-.025l.026-.026.026-.026h.052l.026-.026h.155l.026.026h.077l.026.026h.026l.026.026h.026l.026.025h.026l.026.026.026.026.026.026h.052l.1.077.129.052.129.052.129.077.1.052.129.052.129.026.1.051.129.026.129.052.129.026.129.025.129.026.129.026.129.026h.129l.232.026h.438l.232-.026.232-.026.206-.052.232-.051.207-.078.206-.077.207-.1.206-.1.207-.1.206-.129.207-.155.206-.155.181-.181.129-.1.129-.129.1-.155.129-.155.1-.155.1-.155.1-.18.1-.155.077-.181.077-.181.077-.181.077-.181.052-.181.052-.155.026-.181.026-.129.052-.207.026-.181v-.181l.026-.155v-.129l-.026-.129v-.207l-.026-.1-.026-.1-.026-.077v-.078l-.052-.077-.026-.052-.026-.078-.026-.077v-.078l-.052-.1-.026-.078-.077-.129-.077-.129-.077-.129-.077-.155-.1-.129-.1-.155-.1-.155-.1-.155-.129-.129-.1-.129-.1-.129-.1-.1-.1-.1-.077-.078-.1-.1-.129-.077-.1-.1-.129-.1-.155-.129-.155-.1-.155-.129-.181-.129-.181-.129-.181-.155-.206-.155-.207-.155-.232-.155-.232-.155-.232-.181-.232-.155-.232-.181-.206-.155-.181-.155-.181-.129-.181-.129-.129-.155-.155-.129-.129-.129-.129-.1-.1-.129-.077-.1-.077-.1-.077-.1-.052-.078-.026-.1-.077-.258-.026-.284.026-.232.052-.232.129-.232.129-.207.181-.181.206-.155.232-.129.258-.077.284-.052.284-.026h.284l.31.052.31.1.284.155.129.052.077.077.1.078.077.078.077.077.078.078.077.077.052.1.052.077.052.1.026.1.052.1.026.129.026.1v.232l.026.387,1.058-.026v-3.148h-1.161l-.026.284h-.077l-.026-.026h-.077l-.026-.026h-.052l-.026-.026h-.052v-.026l-.232-.051-.206-.052-.207-.052-.206-.052-.207-.025-.181-.026-.18-.052h-.207l-.155-.026h-.335Z" fill="#f2f2f2"/>
    <path id="Path_865" data-name="Path 865" d="M2111.768,4133.627l-.155-.155-.18-.129-.258-.1-.052-.026-.026-.025h-.077l-.052-.026-.077-.026-.077-.026-.1-.026-.1-.025-.1-.026-.129-.026-.129-.026-.129-.052-.129-.026-.155-.025-.181-.052-.155-.052-.361-.077h-.1l-.026-.026h-.052l-.026-.026h-.052l-.026-.026h-.026l-.026-.026-.026-.026-.077.7.052-.026h.258l.026.026h.052l1.651.387.155.052.129.051.1.078.077.077.026.052.052.1v.052l-.052.078-.026.051-.077.052-.1.052h-.232l-.155-.026-.181-.052-.18-.1-1.342-.49h-.026l-.026-.026-.026-.026h-.052v-.026l-.026-.026h-.026l-.026-.026h-.026v-.025l-.026-.026-.026-.026-.026-.026-.026.026-.026.052v.025l-.026.026-.026.052-.026.026-.026.052v.025l-.026.026-.026.052-.026.026-.026.051-.026.026-.026.026-.026.052h.026l.052.026h.052l.077.051.1.026.1.052.1.026.129.077.155.052.155.052.155.077.207.078.181.077.206.078.207.1.31.1.258.078h.258l.207-.026.207-.052.155-.1.155-.129.1-.155.052-.155.026-.181v-.181l-.052-.155Z" fill="#f2f2f2"/>
    <path id="Path_866" data-name="Path 866" d="M2075.438,4132.363l.052.026h.026l.026.025h.077l.052.026h.284l.026-.026v-.051l-.026-.052v-.155l-.026-.078v-.206l-.026-.078v-.438l1.084-.078v.387l-.026.026v.1l-.026.026v.077l.052-.025h.232l.052-.026h.155l.026-.026h.129v-.052l-.026-.051v-.1l-.026-.052v-.284l.026-.051h.852v.826h-.026v.025l-.026.026v.026h.052l.026-.026h.155l.026-.026h.077l.052-.025h.077l.052-.026h.052l.052-.026-.077-1.5h-.026l-.026.026h-.026l-.026.026h-.026l-.026.025h-.026l-.026.026h-.026l-.026.026h-.052l-2.838.155h-.232l-.026-.026h-.128l.051,1.6Z" fill="#f2f2f2"/>
    <path id="Path_867" data-name="Path 867" d="M2075.36,4130.763h0v0Z" fill="#f2f2f2"/>
    <path id="Path_868" data-name="Path 868" d="M2109.884,4129.111v.129l.026.025v.181l.026.026v.078l.026.051v.078h-.619l-.026-.052-.026-.077-.026-.078v-.052l-.026-.077v-.129l-.026-.052v-.258l.026-.052v-.052l.026-.051v-.052l.026-.026v-.026l.026-.026v-.026l.026-.025.026-.026v-.026h-.129l-.026.026h-.155l-.052.026h-.077l-.052.025h-.052l-.052.026h-.077l-.026.026.1,1.806.026-.026.026-.025.026-.026.026-.026.052-.026h.026l.026-.026h.026l.026-.026h.052l.026-.026h.1l2.554-.129.052.026h.052l.026.026h.052l.026.026H2112l.026.026h.026l.026.025v.026l.026.026.026.026h.026l.026.026V4128.8l-.026-.026-.052-.025-.026-.026h-.052l-.052-.026h-.077l-.052-.026h-.1l-.026-.026h-.181l.026.026v.052l.026.051v.129l.026.051v.129l.026.051v.078l.026.077v.181l.026.1h-.052l-.052.025h-.052l-.052.026h-.077l-.077.026h-.181l-.077.026h-.594l-.026-.026v-.1l-.026-.052v-.284l.026-.052v-.129l.026-.052h-.155l-.026-.026-.026.026h-.1l-.026.026h-.052l-.052.026h-.026l-.052.026-.052.026Z" fill="#f2f2f2"/>
    <path id="Path_869" data-name="Path 869" d="M2110.529,4136.388l-.1-.077-.129-.078-.129-.1-.129-.1-.129-.1-.155-.1-.155-.129-.181-.129-.155-.129-.155-.129-.181-.155-.155-.129-.181-.129-.155-.155v-.077l.026-.026v-.026l.026-.052.026-.026.026-.025v-.026l.026-.026.026-.026.026-.026.026-.025.026-.026.026-.026-.026-.026h-.026l-.026-.026-.026-.026h-.026l-.026-.026-.026-.025-.026-.026h-.026l-.026-.026h-.026l-.026-.026-.052-.026h-.026l-.052-.026-.026-.025-.052.077-.077.1-.052.078-.052.078-.077.1-.077.077-.052.078-.052.077-.052.078-.052.077-.052.052-.052.052-.052.052-.026.051-.026.026v.052l.026.026v.025l.026.026v.026l.026.026.026.026.026.026.026.025.026.026.026.052.026.026.026.051.052.026.026-.026v-.051h.026l.026-.052v-.026l.026-.026.026-.025.026-.026.026-.052.026-.026.026-.026.052-.051.026-.026.026-.026.052-.052.31.258,1.135.929.052.078.077.051.078.052.052.052.077.077.052.052.052.052.052.051.052.052.026.052.052.051.026.052.026.026.026.052.026.051.026.026.413-.567-.1-.052Z" fill="#f2f2f2"/>
    <path id="Path_870" data-name="Path 870" d="M2109.807,4137.136l-.026-.026-.026-.052-.026-.026-.026-.051-.026-.026-.026-.026-.026-.052-.026-.026-.026.026v.026l-.026.026v.026l-.026.026-.026.025v.026l-.026.026-.026.026-.026.026-.026.026-.594.413-1.161-1.806-.026-.051-.026-.026-.052-.052-.026-.052-.026-.052-.026-.051v-.026l-.026-.052-.026-.026v-.051l-.026-.026v-.026l-.026-.052-.026-.025v-.052h-.026l-.026.026-.052.026-.026.025-.052.026-.026.026-.052.026-.026.026-.052.026-.026.025-.052.026-.026.052-.026.026-.052.026-.026.025-.026.026.026.026h.026l.026.026.026.026.052.026.026.026.026.026h.026l.026.025.026.026.026.026.026.026.026.026.026.026v.025l.955,1.6.464.929h.026l.026-.026h.026l.052-.026.052-.051.052-.026.077-.052.078-.051.077-.078.1-.078.077-.051.129-.1.1-.077.129-.1.129-.1.129-.129v-.232l-.026-.026Z" fill="#f2f2f2"/>
    <path id="Path_871" data-name="Path 871" d="M2101.834,4105.27l.026.026v.026l.026.051.026.026.026.026.026.026v.052l.026.025v.026l.026.026v.078l1.161,3.406.052.026.026.026h.052l.026.025h.052l.026.026h.026l.052.026h.077l.026.026h.1l.9-3.2-.593-.232v.438l-.026.026v.077h-.026v.026l-.542,1.419-.774-2.167-.026-.052-.052-.051-.026-.052-.052-.052-.077-.026-.052-.051-.077-.026-.052-.026-.077-.026-.052-.026h-.129l-.052-.026h-.1l-.052.026.026.026Z" fill="#f2f2f2"/>
    <path id="Path_872" data-name="Path 872" d="M2083.9,4137.6l-.206-1.5-.619-.129V4136l.026.052v.052l.026.026v.49l-.026.052v.1l-.026.232-.052.232-.026.232-.026.206-.026.181-.052.155-.026.155v.155l-.026.129-.026.1-.026.1v.078l-.026.052v.077l-.026.052v.1l-.026.026v.1l-.026.026v.052l-.026.026-.026.026v.025h-.026v.026l.722.1-.026-.026v-.026l-.026-.026v-.077l-.026-.026v-.181l.026-.026.155-1.187.258,1.6.7-1.471-.129,1.187-.026.026v.078l-.026.025v.026l-.026.026v.052l-.026.026-.026.026-.026.026v.025l-.026.026-.026.026.722.129v-.49l.026-.129v-.232l.026-.129v-.155l.026-.155.026-.181.026-.181.155-1.367v-.078l.026-.026v-.052l.026-.025.026-.026v-.026l.026-.026v-.026l.026-.026.026-.025v-.026h.026l-.748-.078Z" fill="#f2f2f2"/>
    <path id="Path_873" data-name="Path 873" d="M2094.274,4107.283l.077.1.1.078.1.051.1.078.077.052.1.051.1.026.1.052.077.026.1.026h.1l.1.025h.181l.207-.051.206-.078.181-.1.155-.129.129-.18.1-.181.077-.181.052-.207v-.207l-.026-.207-.052-.18-.1-.181-.155-.155-.181-.155-.258-.1-.284-.077-.31-.078h-.077l-.052-.026h-.077l-.052-.026-.026-.025h-.052l-.026-.026h-.026l-.052-.026-.026-.026-.026-.026-.026-.026-.026-.025-.026-.026-.026-.026v-.078l.026-.1.052-.077.052-.052.077-.052.1-.026.1-.026h.206l.129.026.1.026.1.052.1.077.077.078.077.1.052.1.026-.026h.026l.052-.026.026-.026.052-.026.026-.026.052-.026.026-.025.052-.052.026-.026v-.026l.026-.051v-.078l-.026-.026-.026-.026-.077-.1-.129-.077-.129-.1-.129-.052-.155-.077-.155-.052-.155-.026h-.464l-.155.052-.155.052-.1.077-.129.1-.078.129-.077.155-.026.1-.026.052v.077l-.026.078v.052l.026.077v.078l.026.051.026.052.026.052.026.052.052.051.052.052.052.052.052.025.077.052.026.026h.052l.026.026h.026l.052.026h.077l.052.026h.052l.052.025h.052l.052.026h.078l.077.026.31.052.1.026.078.025.077.026.077.052.052.026.052.052.052.025.052.052.026.052.026.077.026.052v.284l-.026.078v.051l-.026.052-.026.026-.026.052-.052.051-.052.052-.052.026-.052.052-.077.051-.052.026-.078.026-.077.026h-.077l-.077.026-.1-.026h-.129l-.077-.026h-.052l-.078-.026-.052-.026-.052-.026-.077-.051-.026-.026-.052-.052-.052-.051-.052-.052-.026-.052-.052-.077-.026-.078-.026-.078v-.077h-.052l-.052.026h-.026l-.052.026-.026.025-.026.026-.052.026-.026.026-.026.026-.026.052-.026.025v.026l-.026.052-.026.026v.1l-.026.052.1.1Z" fill="#f2f2f2"/>
    <path id="Path_874" data-name="Path 874" d="M2087.642,4105.76l.026.052.026.051.052.052.026.052.052.051.052.052.077.026.052.026.077.052h.026l.026.025h.077l.052.026h.077l.052.026h.155l.077.026h.129l.335.026.1.025h.077l.077.026.077.026.052.026.052.052.077.026.026.051.052.052.026.052.026.051.026.078v.335l-.026.026-.026.077-.026.026-.026.052-.052.051-.052.052-.052.052-.052.051-.052.052-.077.026-.078.026-.077.026-.077.026h-.077l-.1-.026h-.181l-.077-.026h-.052l-.077-.026-.052-.026-.052-.026-.052-.051-.052-.052-.052-.052-.052-.051-.026-.052-.052-.078-.026-.077-.026-.078h-.052l-.026.026-.052.026-.026.026-.026.026-.052.026-.026.025-.026.026-.026.026-.026.052v.026l-.026.051-.026.026v.207l.1.077.1.078.1.078.1.051.1.078.1.051.1.026.1.052.1.026.1.025.077.026.1.026h.284l.1-.026.232-.051.181-.1.155-.129.155-.155.1-.181.1-.181.052-.206.026-.207-.026-.207-.052-.181-.077-.207-.129-.155-.181-.155-.181-.129-.258-.077-.284-.052-.335-.026h-.1l-.052-.026h-.077l-.052-.026h-.052l-.026-.026h-.052l-.026-.025h-.026l-.026-.026-.052-.026-.026-.026-.026-.026v-.026l-.026-.077.026-.1.026-.077.052-.052.077-.051.1-.052.1-.026.1-.026h.206l.129.026.1.052.1.051.1.078.077.077.052.1h.026l.026-.026.052-.026.026-.026.026-.026.052-.025.026-.052.052-.026.026-.052.026-.025v-.052l.026-.026v-.026l-.026-.052v-.025l-.052-.052-.1-.077-.1-.078-.155-.078-.129-.051-.155-.052-.155-.026h-.335l-.155.026-.155.026-.129.052-.129.077-.129.078-.1.129-.077.155-.052.155-.026.077v.284l.026.051Z" fill="#f2f2f2"/>
    <path id="Path_875" data-name="Path 875" d="M2090.042,4105.063h.026l.026-.026h.026v-.026h.026l.026-.025h.052v-.026h.1l.052-.026h.258l.052-.026h.1l.052.026h.129l.052.026h.026l.026.026-.026,2.658v.051l-.077.155.7-.129-.077-.155v-.052l.026-2.554.026-.026h.052l.026-.026h.1l.026-.026h.335l.31.078v-.594l-2.477.129v.593h.026Z" fill="#f2f2f2"/>
    <path id="Path_876" data-name="Path 876" d="M2107.459,4138.091l-.026-.1-.026-.1-.026-.129-.026-.155-.052-.155-.077-.207-.052-.207-.077-.258-.1-.258-.1-.31-.1-.31-.129-.387-.593.181.026.025.026.026.026.026.026.026.026.026v.026h.026v.025l.026.026v.026l.026.026V4136l.026.026.026.025.026.078.026.1.052.129.052.155.052.155.052.18.052.181.077.181.052.181.052.181.052.155.026.1.026.1.026.077.026.026v.181l-.026.078-.026.051-.026.052-.052.026-.026.026h-.207l-.052-.026-.052-.026-.026-.026-.026-.026-.026-.051-.077-.207-.052-.181-.052-.155-.077-.155-.026-.155-.052-.129-.026-.129-.026-.1-.026-.129-.026-.1-.026-.1-.026-.1-.026-.129-.026-.1-.026-.129-.026-.155h-.026v-.052l-.026-.026v-.1l-.026-.026v-.1l.026-.026v-.026l-.645.181.026.026.026.025.026.026.026.025.026.026v.026h.026v.052l.026.025v.052h.026v.078l.026.026v.051l.026.052v.077l.026.052.026.078.026.1v.078l.026.1.026.1.026.1.026.129.026.078.026.051v.078l.026.051v.078l.026.051v.078l.026.052.026.077v.052l.026.078.026.077v.052l.026.077.026.052.026.052v.077l.026.078.026.077.052.078.026.051.026.052.052.052.026.052.052.025.052.052.052.026.052.026.052.026.052.026h.052l.077.025h.232l.077-.025h.077l.077-.026.077-.052.052-.026.077-.052.052-.051.052-.078.078-.077.026-.078.052-.1v-.1l.026-.051v-.052l-.026-.077Z" fill="#f2f2f2"/>
    <path id="Path_877" data-name="Path 877" d="M2105.73,4109.244l.026.1.026.1.052.1.026.1.052.078.052.077.077.1.052.077.077.078.077.077.077.078.155.129.155.078.155.051.155.026h.284l.129-.051.129-.026.1-.052.1-.078.077-.077.077-.052.026-.077.026-.052v-.077l-.026-.052-.026-.026-.026-.026v-.026l-.026-.026-.026-.026-.026-.025-.026-.026h-.026l-.026-.026-.026-.026-.026-.026-.026-.026h-.052l-.052-.025-.026-.026v.1l-.026.078-.026.051-.052.052-.077.026-.077.052h-.181l-.1-.026-.1-.026-.1-.078-.1-.077-.1-.1-.077-.129-.077-.155-.077-.207-.026-.232-.026-.335.026-.284.052-.232.078-.207.077-.181.1-.129.1-.1.1-.078.1-.026h.129l.077.026.1.052.077.1.052.1.052.129v.155h.026l.026-.026.052-.026.026-.025h.026l.026-.026.026-.052.026-.026.026-.026.026-.051.052-.026.026-.052.026-.052.026-.051.026-.052.026-.052-.1-.155-.1-.129-.155-.129-.155-.078-.18-.051-.181-.026h-.181l-.181.051-.181.078-.155.129-.18.155-.129.207-.1.232-.1.31-.052.335v.748l.026.1Z" fill="#f2f2f2"/>
    <path id="Path_878" data-name="Path 878" d="M2089.4,4136.8l-.026-.026h-.052l-.026-.026h-.052l-.026-.026h-.207l-.026-.026h-.155l.026.026v.078h.026v.1l-.077,2.064-.8-2.3h-.026l-.026-.026h-.077l-.026-.026h-.052l-.31-.052v.026h.026v.026h.026v.052h.026v.18l.026.078v.077l-.026.1v.387l-.026.154v.361l-.026.207-.026.232-.026.232v.258l-.026.1v.1l-.026.078v.1l-.026.078v.181l-.026.051v.078l-.026.052-.026.051v.052l-.026.052v.026l-.026.026.026.025h.026l.026.026h.129l.026.026h.387l.1-1.574v.051l.026.026.026.052.026.051.026.078.026.052.026.077.026.078.026.077.052.078.026.1.052.1.026.078.052.129.026.1.052.129.155.361.026.026.026.025h.026l.026.026h.052l.026.026h.077l.052.026h.232v-.052l.026-.051v-.1l.026-.077v-.129l.026-.129v-.31l.026-.181.026-.181v-.206l.026-.232v-.232l.026-.258v-.284l.026-.284.026-.361.052-.31-.026-.025Z" fill="#f2f2f2"/>
    <path id="Path_879" data-name="Path 879" d="M2085.372,4105.4l.026.026.026.026.026.026v.026l.026.025v.026l.026.026v2.941l-.026.026v.052l-.026.026v.026h-.026v.025l-.026.026-.026.026,1.858-.413h.026v-.026h.026l.026-.026.026-.026.026-.026v-.026l.026-.052v-.077l.026-.052v-.18l.026-.078v-.078l-.1.026-.1.026-.077.026-.1.026-.1.026-.077.026-.1.025-.077.026-.1.026-.1.026-.077.026-.077.026-.077.025-.077.026h-.129l-.026-.051v-.361l-.026-.052v-.645l.052-.026.026-.026.052-.026.052-.025h.052l.052-.026.052-.026.077-.026h.1l.077-.026h.129l.077-.026h.129l-.026-.051v-.129l-.026-.051v-.1l-.026-.026v-.077l-.026-.026v-.051l-.026-.026v-.026h-.052l-.052.026-.052.026-.052.025h-.052l-.052.026-.052.026h-.052l-.052.026h-.129l-.026.026h-.181v-.594l.1-.051.077-.026.1-.026.052-.052.077-.026h.077l.052-.025h.052l.052-.026h.052l.052-.026h.413l.026.026h.077v-.078l-.026-.052v-.18l-.026-.026v-.207l-1.884.438h.026Z" fill="#f2f2f2"/>
    <path id="Path_880" data-name="Path 880" d="M2097.267,4107.309v.051h-.026l-.1.335.077.026.129.026.1.026.1.026.129.026.129.025.129.026.129.026.129.026.129.052h.129l.1.025.129.026h.1l.1.026h.1l.258-.619h-.052l-.051.026h-.207l-.026.025h-.258l-.026-.025h-.129l-.052-.026h-.052l-.052-.026h-.1l-.052-.026-.052-.026h-.1l-.026-.026h-.077l-.026-.025h-.026l-.026-.026v-.052l-.026-.077v-.8l.026-.077v-.052h.026l.052-.026h.026l.052.026h.129l.052.026h.077l.052.026h.1l.052.026h.1v-.542l-.052.026h-.49l-.052-.026h-.077l-.026-.026h-.052v-.619h.026l.026-.026h.387l.077.026h.155l.077.026h.129l.077.026.464.18-.052-.567-.077-.026-.077-.026-.1-.026-.129-.025h-.155l-.155-.052h-.155l-.155-.026-.155-.026-.155-.026h-.155l-.155-.025h-.232l-.1-.026h-.052l.077.258v.026h.026v.155h.026l-.052,2.348Z" fill="#f2f2f2"/>
    <path id="Path_881" data-name="Path 881" d="M2086.3,4136.956h.258l.052.026h.18l.052.025h.129l.335.181v-.051l-.026-.052v-.155l-.026-.052v-.206l-.026-.026v-.078l-1.548-.232.052.232v.078l.026.1-.026.129v.207l-.026.207v.232l-.026.258-.026.232-.026.258-.026.258-.026.232-.026.232-.026.18-.026.155v.1l-.026.052v.025l-.026.026v.052l-.026.026-.026.025v.026h-.026l-.026.026-.026.026h-.026l-.026.026,1.625.232v-.129l.026-.026v-.025l.1-.387-.026.026h-.026v.026h-.181l-.774-.1.129-1.032h.052l.052.025h.155l.026.026h.129l.026.026h.077l.026.026h.052v-.052l.026-.026v-.1l.026-.026v-.31h-.1l-.052-.026h-.1l-.052-.026h-.077l-.026-.025h-.181l-.026-.026.1-.826Z" fill="#f2f2f2"/>
    <path id="Path_882" data-name="Path 882" d="M2105.5,4138.555l-.026-.026-.026-.026-.052-.025-.026-.026-.026-.026h-.026l-.026-.026-.052-.026h-.026l-.026-.026-.026-.025h-.052l-.026-.026h-.026v.464l-.026.026v.026l-.026.025-.026.026h-.026v.026h-.026l-.026.026h-.026l-.155-.052-.129-.077-.129-.1-.1-.155-.1-.181-.077-.18-.077-.207-.052-.232-.052-.207v-.206l-.026-.207.026-.181.026-.155.052-.129.078-.1.077-.026h.052l.026-.025h.1l.052.025h.026l.052.026h.026l.052.052.026.026.026.026.026.051.026.052v.129l.258-.49v-.1l-.077-.052-.1-.052-.1-.051-.1-.052-.129-.026-.129-.025h-.258l-.129.051-.1.078-.1.077-.1.155-.052.155-.052.232-.026.232.026.31.026.361.052.31.077.284.077.232.1.207.077.181.129.129.1.129.129.1.1.077.1.052.1.026.1.026.077.026h.077l.052-.026h.026l.052-.026.052-.026h.052l.052-.052.052-.026.052-.051.052-.052.052-.052.052-.051.052-.078.026-.077.026-.078.026-.077.026-.1v-.077l-.026-.026Z" fill="#f2f2f2"/>
    <path id="Path_883" data-name="Path 883" d="M2077.76,4112.185v-.017l-.026.017Z" fill="#f2f2f2"/>
    <path id="Path_884" data-name="Path 884" d="M2077.708,4108.263l.026.026h.026v.026l.026.025h.026v.026l.026.026v.026l.026.026v.051l-.026,3.406v.1l-.026.026v.077l-.026.026-.026.026v.009l.7-.448-.026-.026-.026-.026-.026-.026v-.026l-.026-.025v-1.91l.077-.026.052-.051.052-.026.077-.026.052-.026.052-.026.052-.026.077-.025.052-.026h.052l.052-.026.052-.026h.077l.052-.026h.052l.052-.026v-.284l-.026-.026v-.077l-.026-.026v-.052l-.026-.026v-.051l-.284.155h-.026v.026h-.077l-.026.025h-.026l-.026.026-.052.026h-.052l-.026.026-.052.026-.052.026h-.052l-.052.025-.077.026v-.284l.026-.026v-.232l.026-.026v-.052l.026-.052v-.025l.026-.052.129-.078.129-.051.1-.052.1-.052.077-.052.1-.051.052-.052.077-.026.077-.025.052-.052.052-.026h.026l.052-.026h.129l-.026-.593-.052.026-.026.025-.052.026-.026.026-.052.026-.052.026-.052.026h-.026l-.052.025-.052.026-.026.026h-.052l-.052.026-.026.026-.052.026-.026.026-.077.025-.052.026-.077.026-.052.026-.052.026-.077.052-.077.025-.077.026-.052.052-.077.026-.1.051-.078.026-.077.052-.1.051-.1.052-.1.078h.052Z" fill="#f2f2f2"/>
    <path id="Path_885" data-name="Path 885" d="M2108.13,4107.721v3.1h-.026v.026l-.026.026v.026l-.026.026-.026.026v.025L2108,4111l-.026.026.155.078.129.077.155.078.129.077.129.052.129.077.1.052.129.078.1.051.1.052.1.052.077.051.1.052.078.052.077.051.077.026.077-.8-.026.026h-.026l-.026.026h-.026l-.026.026h-.052v.025h-.077l-.7-.335h-.026l-.026-.026-.026-.026v-.026l-.026-.026-.026-.026v-.025l-.026-.052v-.026l-.026-.078v-.077l-.026-.078v-.929l.077.026h.052l.052.026.052.051h.052l.052.026.052.052h.026l.052.051.052.026h.026l.052.026.026.052h.052l.026.052h.052l.052-.542-.026-.026h-.052l-.026-.026h-.052l-.052-.026-.052-.025h-.026l-.052-.026-.052-.026-.052-.026-.052-.026h-.052l-.052-.052-.052-.025-.026-.026-.052-.052-.052-.748.1.026.1.051.077.052.077.026.077.051.077.026.077.052.077.052.077.026.052.051.077.026.052.052.052.051.077.026.052.052.052.026.052-.284v-.026l-.026-.052v-.052l-.026-.051-.026-.052-.026-.052-.026-.051-.026-.026-.052-.052-.052-.052-.052-.026-.052-.051-.052-.052-.077-.026-.052-.026-.077-.051-.155-.078-.129-.051-.129-.078-.129-.052-.1-.077-.1-.026-.1-.052-.077-.052-.1-.025-.052-.026-.052-.026-.077-.052h-.026l-.052-.026h-.026l.026.026v.052l.026.026v.026l.026.025v.026l.026.026v.026l.026.026v.052l.026.025v.052Z" fill="#f2f2f2"/>
    <path id="Path_886" data-name="Path 886" d="M2099.563,4138.117l-.026.026h-.026v.438l.026.181.026-.026.052-.026v-.026h.052l.026-.026h.258v.052h.026v.723l-.026.052-.026.051-.026.026-.026.026h-.026l-.052.026h-.1l-.026-.026-.026-.026h-.026l-.052-.026v-.026l-.026-.051-.026-.026-.052-.078-.052-.1-.052-.155-.052-.181-.052-.207-.026-.207-.026-.232-.026-.207v-.413l.026-.18.052-.155.052-.129.078-.077.1-.052.129.026h.026l.026.026.026.026.026.026v.025l.026.026v.026l.026.052.026.026.026.051v.052l.026.052.026.051v.052l.026.052.077-.078.077-.1.052-.078.052-.077.026-.078.026-.077.026-.052v-.129l-.026-.052-.026-.052-.026-.051-.052-.078-.077-.026-.052-.051-.1-.052-.052-.052-.077-.026h-.077l-.1-.025h-.18l-.1.025-.078.052-.1.052-.077.052-.1.1-.052.1-.077.129-.052.155-.052.181-.026.18-.026.207v.594l.026.206.026.232.052.207.026.18.077.207.077.181.078.155.1.155.129.129.1.077.155.078.155.025h.155l.1-.025.077-.026.077-.052.077-.026.052-.051.077-.052.052-.078.077-.051.052-.052.026-.078.026-.051.026-.052.026-.052v-.051l-.077-1.394Z" fill="#f2f2f2"/>
    <path id="Path_887" data-name="Path 887" d="M2082.637,4136.388l.052.026h.026l.026.026h.026l.026.026h.026l.026.026.026-.026v-.026l.026-.052v-.026l.026-.051v-.026l.026-.052v-.31l-1.677-.361-.026.052v.052l-.026.026v.051l-.026.026v.1l-.026.052v.181l.18-.026h.052l.026.026h.129l.026.026h.026l.026.026h.026l.052.025h.026l.026.026.026.026-.464,2.477v.052h-.026v.052l-.026.025v.026l-.026.026v.026h-.026l-.026.026-.026.026-.026.026h-.026l.645.18v-.284l.026-.026v-.1l.026-.1.026-.18.052-.181.052-.207.026-.232.052-.232.052-.232.052-.207.052-.206.052-.207.026-.155.026-.129.026-.1.026-.051h.078l.026.025h.077l.052.026h.077Z" fill="#f2f2f2"/>
    <path id="Path_888" data-name="Path 888" d="M2089.655,4136.8v.31l.026.026v.129l.026.026h.516l.052.026h.052l-.078,2.658v.1l-.026.026v.051l-.026.026v.026l-.026.026-.026.026v.025l-.026.026h.722l-.026-.026-.026-.051v-.026h-.026v-.077h-.026v-.155l.1-2.632h.026l.052-.026h.1l.052.026h.1l.052.025h.052l.026.026h.052l.026.026h.052l.026.026h.052v-.568l-1.832-.129Z" fill="#f2f2f2"/>
    <path id="Path_889" data-name="Path 889" d="M2094.3,4136.878l.077.207.1,3.122v.052h-.026v.025l-.026.026-.026.026-.026.026h.723l-.026-.026-.026-.026v-.026l-.026-.025v-.052H2095v-.1l-.026-.052v-.155l-.026-.078v-1.135h.1l.026-.026h.335l.026.026h.155l.026-.516h-.077l-.026.025h-.129l-.052.026h-.413v-.129l-.026-.052v-.619h1.006v.026h.052l.026.026.026.026-.077-.62Z" fill="#f2f2f2"/>
    <path id="Path_890" data-name="Path 890" d="M2103.666,4139.613h-.026v-.052h-.026v-.052h-.026v-.077l-.026-.026-.49-2.761-.026-.052v-.335h.026v-.026h.026v-.026h-.258l-.052.026h-.155l-.077.026h-.026l-.052.026.568,3.225v.1h.026v.051h-.026v.1l.645-.1v-.026h-.026Z" fill="#f2f2f2"/>
    <path id="Path_891" data-name="Path 891" d="M2105.369,4109.863h.026v-.826l-.026-.335v-.645l-.026-.258v-1.316l.026-.052.052-.129-.671-.284v.026l.026.052v.026l.026.026v.026l.026.025v.026l.026.026v.207l.026,2.89v.026l-.026.026v.077l-.026.026-.026.026v.026h-.026v.026l-.026.026v.025h-.026l.619.232Z" fill="#f2f2f2"/>
    <path id="Path_892" data-name="Path 892" d="M2075.515,4129.679l.129.232.155.181.206.155.258.129.258.077.258.052.31.025.284-.025.284-.026.258-.077.258-.078.232-.1.206-.129.181-.155.1-.155.026-.077.026-.077v-.078l.026-.052v-.413l-.026-.051v-.078l-.026-.051v-.077l-.026-.052v-.078l-.026.026h-.051l-.026.026h-.026l-.026.026h-.051l-.026.025h-.077l-2.839-.051h-.154l-.026-.026h-.052l-.026-.026-.025.026v.026l-.026.025v.31l-.026.052v.206l.026.052Zm.542-.412h.129l.155-.026h.8l.155.026h.335l.181.025h.154l.155.026h.155l.129.026.026.051v.1l-.026.051-.026.052-.026.052-.051.025-.052.052-.051.052-.078.025-.077.026-.1.052-.078.026-.129.025-.1.026-.129.026-.077.025h-.594l-.129-.025-.1-.052-.129-.026-.1-.051-.129-.052-.078-.077-.1-.078-.052-.129-.051-.1-.052-.155Z" fill="#f2f2f2"/>
    <path id="Path_893" data-name="Path 893" d="M2076.109,4133.188l.1-.025h.671l.025.129.026.1.052.1.026.077.051.1.052.077.026.077.077.078.052.051.051.052.078.078.077.025.052.052.1.026.077.051.078.026h.284l.129-.026h.1l.129-.051.077-.026.1-.052.078-.051.077-.078.052-.051.077-.053.026-.077.052-.052.026-.077.025-.052.026-.077v-.052l.026-.025v-.258l-.026-.026v-.026l-.155-.928-.026.025-.025.026-.026.026h-.026l-.026.025h-.026v.026h-.077l-.026.026h-.129l-2.167.232-.671.026h-.232l-.026-.026v.155l.026.051v.1l.026.077v.052l.025.051v.052l.026.052v.051l.026.052.026.026.051-.026.052-.026.077-.025.052-.026h.077l.078-.026.077-.026Zm1.393-.1.955-.1.025.025h.026v.078l.026.026v.077l-.026.051v.1l-.026.052-.025.051-.026.052-.026.026-.026.025-.051.052-.078.026-.051.051h-.078l-.077.026h-.078l-.051-.026-.078-.025-.077-.026-.052-.052-.051-.025-.078-.078-.025-.077-.026-.078-.026-.1Z" fill="#f2f2f2"/>
    <path id="Path_894" data-name="Path 894" d="M2078.2,4136.131l.154-.155.155-.181.155-.18.181-.155.155-.181.129-.155.154-.154.129-.129.1-.1.1-.1.1-.077-.026-.026-.026-.026-.025-.051-.026-.026v-.052l-.026-.025-.026-.052-.026-.026-.025-.051-.026-.052-.026-.026-.026-.025-.026-.026-.051-.052-.026-.026-.026-.025v.025l-.026.026-.025.026-.026.026-.026.025-.026.026h-.026l-.025.026h-.026l-.026.026h-.052l-.025.025-.31.078-2.271.516-.026.025h-.1l-.026-.025h-.077l-.026-.026h-.051l-.026-.026h-.052v.078h.026v.077l.026.026V4135l.026.052.025.026.026.051.026.052.026.077.051.052.026.077.052.078h.051l.026-.026h.052l.026-.025h.025l.026-.026h.129l.026-.026h.181l.025.052.026.052.026.052.026.025.026.052.025.052.026.025.026.052.026.026.026.025v.026l.026.026.025.026v.025h.026v.026l.207.232-.026.026v.052l-.026.025-.026.026v.026l-.026.051-.025.026-.026.026-.052.026-.026.025-.025.026-.026.026-.026.026-.026.025-.026.026-.026.026v.025l.026.026.026.026.026.026.026.051.051.052.026.026.026.051.052.026.025.052.052.025.026.052.026.026.051.026h.026l.026.025v-.026l.026-.025v-.077l.025-.026v-.051l.026-.026.026-.026.077-.1.1-.129.129-.155.129-.154Zm-.233-.414-.051.052-.052.051-.026.026-.025-.052-.052-.025-.026-.052-.026-.026-.051-.052-.026-.025-.026-.052-.026-.052-.025-.025-.026-.052-.026-.026-.026-.051-.026-.052-.025-.026-.052-.052v-.051l1.445-.387h0l-.026.026-.052.052-.051.051-.052.078-.077.077-.078.077-.077.1-.077.077-.078.1-.077.078-.078.077-.077.077Z" fill="#f2f2f2"/>
    <path id="Path_895" data-name="Path 895" d="M2080.908,4135.668l-.078-.155-.077-.155-.155-.129-.155-.155-.541-.438v.206h-.026v.051l-.026.026v.051l-.026.026-.026.052-.025.051-.026.052-.078.1-.051.078-.052.1-.1.129-.077.129-.1.129-.1.155-.129.18-.1.155-.129.207-.155.18-.387.516v.026h-.026v.026l-.026.025-.025.026-.026.026-.026.026h-.026v.025h-.026l-.025.026h-.026l-.026.026h-.052v.051l.052.026.026.052.051.026.026.051.078.026.025.052.052.025.052.026.051.052.052.025h.026l.025.026.026.026h.052v-.155l.026-.026v-.025l.025-.052v-.026l.026-.025.026-.052.026-.052.026-.026.025-.051.052-.052.026-.077.051-.051.026-.026v-.026l.026-.026v-.025h.026l.026-.052v-.026l.026-.025.025-.026.026-.026.026-.052.026-.025.026-.052.025-.026.026-.051.026-.052.026.026h.026l.025.025h.026v.026h.052v.026h.051l.026.026h.052l.026.025h.051l-.077,1.342v.129l-.026.025-.026.026-.026.026h-.025l.051.052.052.025.051.026.052.026.052.025h.051l.026.026h.052l.025.026h.026l.026.026h.052l.025.025h.026v-.05l-.026-.025v-.31l.026-.077v-.464l.026-.129v-.31l.026-.155v-.18l.18-.052.129-.052.155-.077.129-.078.1-.1.1-.129.077-.1.052-.129.026-.155.025-.129-.025-.154Zm-.49.255v.155l-.026.051-.026.078-.052.051-.051.052-.052.052-.077.051-.052.026H2080l-.078.026h-.077l-.077-.026-.078-.052h-.051l-.026-.025v-.026h-.026v-.077l.026-.026.026-.077.025-.052.026-.052.052-.077.051-.077.052-.052.026-.077.051-.052.026-.052.052-.051.026-.026v-.026l.025-.026h.052l.026.025h.051l.026.026.026.026h.026v.025l.026.026h.025l.026.026v.051l.026.026h.026l.026.078Z" fill="#f2f2f2"/>
    <path id="Path_896" data-name="Path 896" d="M2093.964,4137.6l-.1-.284-.155-.258-.181-.155-.206-.1-.258-.026-.078.026-.077.026-.077.026-.078.025-.077.052-.052.052-.077.051-.052.078-.051.077-.052.077-.052.1-.051.1-.026.1-.026.129-.051.129-.026.129v.077l-.026.078v.077l-.026.078v.541l.026.1v.181l.026.1.026.1.025.1v.1l.026.1.052.078.026.1.025.077.052.078.052.077.025.052.052.077.052.052.051.025.078.052.051.052.078.026h.051l.078.025h.258l.232-.077.18-.155.155-.232.129-.284.1-.309.051-.336.026-.361v-.361l-.052-.361Zm-.413,1.16-.026.232-.026.206-.051.207-.052.18-.1.13-.1.1-.129.051-.1-.077-.1-.1-.077-.129-.052-.155-.051-.181v-.206l-.026-.207v-.232l.026-.206.026-.207.025-.206.052-.155.052-.155.051-.129.078-.077.077-.052h.1l.1.078.078.1.077.129.052.18.051.207.026.206.026.232Z" fill="#f2f2f2"/>
    <path id="Path_897" data-name="Path 897" d="M2098.685,4140.155v-.026h-.026v-.025h-.025v-.052h-.026l-.026-.026V4140l-.026-.1-.051-.129-.052-.13-.026-.18-.077-.155-.026-.181-.051-.18-.078-.181-.025-.181-.052-.18-.052-.181-.052-.181-.051-.155-.026-.154-.052-.129-.025-.129-.026-.052-.026-.052v-.077l-.025-.026v-.052l-.026-.051v-.1l-.026-.025v-.129l-.026-.026v-.1h0v0h-.155l-.026-.026h-.026l-.052.026h-.128l-.052.025h-.026l-.051.026h-.026l-.026.026v.051l.026.026v.361l-.026.052v.051l-.542,2.606-.025.026v.077h-.026v.051h-.026v.052h-.026v.026l-.025.025-.026.026-.026.026-.026.026h.645l.13-.516.825-.026.078.438.671-.051h-.026Zm-.877-.9h-.052l-.051.026h-.31l-.051-.026h-.052l.258-1.058.309,1.058Z" fill="#f2f2f2"/>
    <path id="Path_898" data-name="Path 898" d="M2102.815,4139.741l-.025-.025v-.026l-.026-.026-.026-.026v-.025l-.026-.026v-.026l-.025-.052-.026-.025v-.026l-.026-.026v-.025l-.025-.026-.284-.774-.207-.413.026-.026.026-.026.025-.025v-.026l.026-.026h.026v-.051l.026-.026.025-.026.026-.025v-.026l.026-.026.051-.1.026-.1.026-.1.026-.129v-.129l-.026-.129-.026-.129-.051-.129-.052-.1-.1-.129-.1-.077-.129-.1-.155-.052-.181-.025-.206-.026-.233.026-.335.025-.361.026v.052l.025.025.026.026v.052l.026.025v.052l.026.052.025.077v.052l.026.077v.052l.026.077v.1l.025.078v.18l.052.284.026.232.026.232.025.233.026.18v.181l.026.181.025.129v.129l.026.129v.541h-.026v.052h-.025v.049l.748-.05v-.028h-.025v-.025h-.026v-.052h-.026v-.051l-.025-.026v-.051l-.026-.1-.026-.078-.026-.077v-.155l-.025-.077v-.723h.025v-.026l.078.026.025.052.052.026.052.051.051.052.052.077.026.078.052.077.025.077.052.1.052.1.025.129.052.1.026.129.025.155.052.129h.181l.051-.026h.1l.051-.026h.155l.052-.025h.077l.026-.026h-.026Zm-.9-2.373v.181l-.052.077-.025.1-.052.077-.077.052-.1.051h-.233l-.155-.98h.465l.077.051.052.052.026.052.051.077.026.1Z" fill="#f2f2f2"/>
    <path id="Path_899" data-name="Path 899" d="M2100.9,4140.026v0l-.026,0Z" fill="#f2f2f2"/>
    <path id="Path_900" data-name="Path 900" d="M2112.077,4130.712l-.026.026-.051.026-.026.026h-.052l-.026.025h-.051l-.052.026-.052.026h-.077l-.052.026h-.051l-.052.025h-.026l-.051.026h-.078l-.077.026-.077.025h-.052l-.077.026h-.052l-.052.026h-.051l-.052.026h-.077l-.026.025h-.1l-.078-.206-.1-.155-.129-.129-.154-.1-.155-.052-.155-.051h-.155l-.155.025-.154.052-.155.052-.129.077-.129.1-.1.1-.078.129-.051.129v1.394l.026-.025h.052l.026-.026h.026l.025-.026h.232l.025.026h.026l2.632.207h.052v.025h.077v.026h.051v.026h.026v.025h.026l.025.026.026-.774-.026.026h-.051l-.078.025h-.619l-.1-.025h-.232l-.077-.026h-.207v-.284l.129-.051h.129l.1-.026.1-.026.1-.026.1-.025.1-.026.077-.026h.1l.077-.026h.052l.077-.025h.129l.052-.026h.051v-.7l-.025-.025Zm-1.857.773v.361l-.026.078v.025h-.025l-.877-.025v-.078l-.026-.051v-.078l-.026-.077v-.284l.026-.052v-.077l.026-.052v-.026l.025-.025.026-.026.026-.026v-.026h.025l.026-.025h.026V4131h.051l.026-.026h.052l.025-.026h.259l.1.026.078.078.077.051.026.1.051.078.026.129Z" fill="#f2f2f2"/>
    <path id="Path_901" data-name="Path 901" d="M2099.77,4105.193v.025l-.025,2.632v.1h-.026v.025l-.1.155.722.155-.025-1.419h.025v-.026h.155l.025.026h.078l.052.026h.077l.026.025.051.155.052.129.026.1.025.129.052.078.026.1v.1l.026.078.025.077.026.1v.078l.026.077.025.078.026.1.052.1.025.1.8.232-.206-.387-.051-.1-.052-.077-.026-.078-.025-.077-.052-.1-.026-.078-.025-.1-.052-.077-.026-.078-.026-.1-.025-.1v-.1l-.026-.1-.026-.1-.025-.129-.026-.129.155-.1.129-.155.1-.129.077-.155.026-.129.052-.155v-.129l-.026-.154-.026-.129-.077-.129-.078-.129-.1-.1-.129-.077-.129-.077-.181-.052-.154-.052h-.129l-.129-.025-.1-.026h-.1l-.1-.026-.1-.026-.077-.026h-.181l-.077-.025h-.129l-.052-.026h-.155l.026.026v.025l.026.026v.026l.025.026.026.026v.051l.026.026v.1l.025.026v.052Zm.541,1.057v-.9h.181l.077.026h.129l.052.026h.077l.052.026h.077l.052.026h.026l.026.025h.025l.052.052.052.052.051.051.026.052.026.077v.052l.025.077-.025.052v.077l-.026.052-.026.052-.026.051-.025.052-.052.025-.025.026h-.052l-.052.026h-.593l-.026-.026h-.078Z" fill="#f2f2f2"/>
    <path id="Path_902" data-name="Path 902" d="M2082.559,4106.147h.026l.026.026h.026l.025.026h.052v.051l.026.026v.052l.026.026v.051l-.026,2.968v.154l-.026.026v.026l-.026.026v.051l-.026.026h.1l.025-.026h.052l.052-.025h.051l.052-.026.051-.026h.052l.026-.026.052-.026.025-.025h.052l.026-.026-.026-1.7v-.026h.026l.026-.026.025-.026.026-.025h.026l.052-.026h.025l.052-.026h.026l.051-.026h.1l.077.1.052.1.077.077.052.1.051.1.052.1.051.077.026.1.052.078.026.1.025.077.026.1.052.077v.077l.026.1.025.077.594-.206-.052-.1-.077-.1-.078-.129-.051-.129-.052-.129-.077-.129-.052-.1-.051-.129-.052-.1-.052-.1-.025-.1-.026-.077-.026-.078-.026-.051v-.052l.258-.18.1-.1.078-.129.051-.1.052-.129.026-.1v-.336l-.026-.1-.052-.077-.051-.1-.052-.052-.077-.077-.078-.052-.077-.052-.077-.025h-.439l-.077.025h-.1l-.1.026-.1.026-.129.052-.129.025-.129.052-.129.052-.155.051-.155.052-.18.052.025.025Zm.7.31.052-.026.051-.051.052-.026.051-.026h.052l.052-.026.051-.026h.052l.051-.026h.1l.051-.025h.258l.026.025.026.026.026.026.025.026.026.052v.18l-.026.078v.025l-.051.078-.026.026-.052.051-.077.052-.026.026-.026.025h-.051l-.052.026-.051.026-.052.026-.052.026h-.077l-.052.025h-.077l-.052.026h-.18l-.026-.026Z" fill="#f2f2f2"/>
    <path id="Path_903" data-name="Path 903" d="M2079.747,4109.269v.078l.026.077v.078l.025.051v.078l.026.077.026.052.026.051.026.078.025.051.026.052.026.052.026.025.026.052.025.051.052.052.052.052.051.051.052.026.077.052.052.025.051.026.052.026.077.026.052.026h.413l.206-.078.181-.077.155-.129.129-.155.1-.18.1-.181.052-.207.077-.206.052-.232.026-.207v-.18l.025-.207v-.516l-.077-.361-.129-.284-.155-.258-.18-.18-.207-.129-.206-.078h-.232l-.233.026-.206.1-.207.181-.206.206-.155.284-.129.335-.077.387-.026.465.026.516Zm.464-.541v-.258l.026-.284.052-.233.077-.232.1-.18.1-.155.155-.1.181-.052.206.026.129.077.129.129.1.181.077.206.052.233.025.232v.258l-.025.258-.026.258-.078.258-.077.206-.1.181-.1.155-.155.1-.129.052h-.181l-.129-.078-.129-.1-.1-.181-.078-.206-.051-.232-.052-.258Z" fill="#f2f2f2"/>
  </g>
</svg>
