<?xml version="1.0" encoding="UTF-8" standalone="no"?>
<svg
   width="215.094"
   height="145"
   viewBox="0 0 215.094 145"
   version="1.1"
   id="svg159"
   sodipodi:docname="logo.svg"
   inkscape:version="1.1 (c4e8f9ed74, 2021-05-24)"
   xmlns:inkscape="http://www.inkscape.org/namespaces/inkscape"
   xmlns:sodipodi="http://sodipodi.sourceforge.net/DTD/sodipodi-0.dtd"
   xmlns="http://www.w3.org/2000/svg"
   xmlns:svg="http://www.w3.org/2000/svg">
  <defs
     id="defs163" />
  <sodipodi:namedview
     id="namedview161"
     pagecolor="#ffffff"
     bordercolor="#666666"
     borderopacity="1.0"
     inkscape:pageshadow="2"
     inkscape:pageopacity="0.0"
     inkscape:pagecheckerboard="0"
     showgrid="false"
     inkscape:zoom="4.0068966"
     inkscape:cx="107.43976"
     inkscape:cy="72.5"
     inkscape:window-width="1440"
     inkscape:window-height="781"
     inkscape:window-x="0"
     inkscape:window-y="0"
     inkscape:window-maximized="1"
     inkscape:current-layer="svg159" />
  <g
     id="Group_384"
     data-name="Group 384"
     transform="translate(-1970.985 -4099)">
    <path
       id="Path_856"
       data-name="Path 856"
       d="M2019.632,4158.453c6.138,0,14.069-2.208,19.586-4.828-1.034,3.241-1.586,6.9-4.276,18.551a39.716,39.716,0,0,1-2.133,7.077,7.015,7.015,0,0,1,.745,2.529l.01.11V4182c0,2.634-1.974,4.3-6.772,7.434-.085.492-.167,1.014-.247,1.561a12.7,12.7,0,0,0,1.363.075c7.517,0,13.724-4.552,16.552-14.069,2.138-7.1,4.965-23.31,6.965-29.173a19.531,19.531,0,0,0,7.449,1.242c5.172,0,9.448-2.9,9.448-7.587a3.282,3.282,0,0,0-.9-2.275c-7.862-.138-12.551-.966-29.724-4.9a60.491,60.491,0,0,0-14.207-1.931c-7.1,0-14,7.38-14,15.724C2009.494,4154.935,2013.425,4158.453,2019.632,4158.453Zm2.69-18c2.965,0,7.931,1.1,20.69,5.311a13.22,13.22,0,0,0-2.483,4.138,3.709,3.709,0,0,0-2.9-1.035c-1.655,0-8,1.31-12.966,1.31-4.137,0-6.689-1.655-6.689-5.241A4.129,4.129,0,0,1,2022.322,4140.452Z"
       fill="#f2f2f2" />
    <path
       id="Path_857"
       data-name="Path 857"
       d="M2055.7,4161.556a4.09,4.09,0,0,0,1.034,2.827,34.092,34.092,0,0,1-4.276,7.1,2.892,2.892,0,0,0-.482,1.655,2.626,2.626,0,0,0,2.758,2.69,40.99,40.99,0,0,0,6-9.035c1.517.621,2.276,1.035,2.276,1.862,0,1.793-3.379,7.656-3.379,12.207,0,3.931,2.345,5.793,6.552,5.793,3.545,0,8.789-3.832,12.728-7.972.772,4.351,3.317,6.593,6.581,6.593,2.414,0,5.586-1.724,7.793-8a20.736,20.736,0,0,0-.207,2.69c0,4.413,1.931,5.655,4.966,5.655,2.789,0,7.625-3.5,11.327-7.371a17.452,17.452,0,0,0-.156,2.337c0,3.792,1.379,5.586,5.448,5.586,3.342,0,8.051-2.569,11.679-6.263a11.3,11.3,0,0,1,8.706-4.355,9.919,9.919,0,0,1,1.4.1c.438-2.975,3.327-13.658,5.045-19.828,5.172-9.725,6.552-13.1,6.552-16.138,0-3.518-1.862-4.9-4.828-4.9-5.448,0-10.345,5.586-11.586,14.9-.621,4.69-1.862,11.173-2.69,15.656-.177.927-.523,2.378-.912,4.073-3.925,5.218-6.557,7.03-7.432,7.03-.621,0-.965-.276-.965-1.034,0-1.586.9-3.793,2.827-8.552,1.242-2.9,2.414-5.793,2.414-7.586,0-2.69-.276-4.414-3.448-4.414-4.276,0-10.414,7.241-10.414,11.311a14.569,14.569,0,0,0,.22,2.655c-4.1,5.535-7.394,7.9-8.7,7.9-.551,0-.827-.207-.827-1.586,0-1.793.9-6.138,3.31-14.827a18.43,18.43,0,0,0,.759-4.552c0-2.414-2.552-5.587-7.242-5.587a3.17,3.17,0,0,0-2.413.9l-.207,4a2.327,2.327,0,0,0-1.794-.483c-5.835,0-12.853,7.752-14.876,16.4-3.2,4.1-6.663,6.907-8.226,6.907-.9,0-1.172-.69-1.172-1.655,0-1.725,1.379-5.1,2.965-8.277,1.1-2.206,1.862-3.862,1.862-5.241,0-1.655-.827-2.621-4.9-3.793a18.845,18.845,0,0,1-3.242-1.241,9.81,9.81,0,0,1,4-3.449,4.433,4.433,0,0,0,.207-1.379c0-1.862-1.586-2.965-3.931-2.965C2062.94,4149.9,2055.7,4156.728,2055.7,4161.556Zm39.861-2-2.207,14.345a3.858,3.858,0,0,1-2.759,1.724c-.965,0-1.793-.276-1.793-2.828C2088.8,4167.487,2092.111,4161.762,2095.56,4159.556Z"
       fill="#f2f2f2" />
    <path
       id="Path_858"
       data-name="Path 858"
       d="M2125.214,4150.246c3.31-4.07,4.621-6.76,4.621-8.415,0-2.137-3.1-5.172-5.863-5.172-2.206,0-3.379,2-3.379,7.586C2120.593,4148.246,2122.524,4150.246,2125.214,4150.246Z"
       fill="#f2f2f2" />
    <path
       id="Path_859"
       data-name="Path 859"
       d="M2139.221,4176.611a6.316,6.316,0,0,1,2.892,4.54c4.233-3.539,7.652-8.145,7.652-11.043a2.524,2.524,0,0,0-2.621-2.345C2144.43,4171.99,2141.442,4175.265,2139.221,4176.611Z"
       fill="#f2f2f2" />
    <path
       id="Path_860"
       data-name="Path 860"
       d="M2180.975,4202.761a9.57,9.57,0,0,1,3.655.827,5.512,5.512,0,0,0,1.449-3.724c0-3.31-2.345-5.034-6.345-5.034-6.275,0-10.965,4-10.965,9.793,0,4.275,4,12.62,4,16.137a1.412,1.412,0,0,1-1.448,1.586c-1.586,0-3.931-2.069-4.483-5.1a5.431,5.431,0,0,0,1.793-3.793c0-1.724-1.931-4.828-4.344-4.828-2.371,0-3.621,3.294-4.156,6.665-3.476,3.355-7.527,5.4-10.878,5.4-2.689,0-3.31-1.724-3.31-4.828,9.448-2.137,12.827-6.62,12.827-12.413,0-4.827-2.62-7.1-7.379-7.1-6.07,0-13.614,8.744-14.96,18.143-2.826,3.6-5.6,5.925-7.246,5.925-.62,0-.966-.276-.966-1.034,0-1.725,3.242-13.724,5.1-20.413l.472-.89c.238-.451.465-.883.687-1.305l.2-.373.278-.536.129-.247.288-.559c.033-.065.068-.132.1-.2l.285-.559c.027-.054.056-.11.083-.163l.314-.622.034-.067c.083-.166.163-.326.242-.487.03-.059.061-.121.09-.18l.28-.569.029-.06c.085-.175.167-.344.248-.512l.047-.1c.077-.161.151-.318.224-.473l.051-.108q.129-.274.249-.536l.008-.017c.078-.17.153-.336.227-.5l.015-.033c.077-.172.151-.339.222-.5l0,0q.108-.246.207-.483l0,0c.063-.15.123-.3.182-.439l.012-.03c.058-.143.114-.284.168-.422l.01-.025c.053-.135.1-.267.152-.4l.012-.032c.05-.133.1-.264.143-.392l.007-.019c.045-.128.088-.253.129-.376l.007-.019q.063-.187.118-.367l.005-.013c.037-.12.072-.238.106-.354l0-.012c.033-.114.064-.225.093-.335l.005-.018c.029-.112.057-.222.083-.331l0-.01c.025-.107.049-.212.071-.316l0-.015q.033-.156.06-.309l0-.011q.027-.152.05-.3l0-.012q.022-.149.04-.295v-.009c.012-.1.022-.192.031-.287v-.011c.009-.1.016-.191.022-.286v-.006c.006-.1.01-.191.013-.286h0c0-.108.006-.214.006-.32,0-3.517-1.862-4.9-4.827-4.9-.188,0-.376.008-.563.022-.059,0-.118.011-.178.017-.128.012-.255.026-.382.044-.069.009-.137.021-.205.033-.119.02-.238.043-.356.068l-.2.046c-.123.03-.245.064-.367.1-.06.017-.12.034-.18.053-.155.049-.308.1-.461.162l-.075.027q-.268.105-.532.23c-.045.021-.089.045-.134.067-.13.064-.26.131-.388.2l-.173.1c-.116.067-.231.136-.345.209l-.174.114c-.117.077-.232.158-.346.241l-.155.113q-.2.155-.4.321c-.027.022-.055.043-.082.066-.163.139-.324.283-.483.434l-.065.064c-.134.129-.265.261-.4.4-.044.046-.087.094-.13.141q-.162.175-.321.36l-.138.165c-.1.125-.205.252-.306.382-.042.055-.085.109-.127.165q-.168.223-.33.459c-.027.038-.055.076-.082.115a17.124,17.124,0,0,0-.9,1.485l-.078.143c-.154.291-.3.591-.447.9-.023.048-.044.1-.066.146-.138.3-.272.612-.4.931-.009.023-.019.046-.029.069-.13.331-.253.673-.372,1.02l-.069.206c-.115.348-.226.7-.328,1.067-.012.043-.023.087-.035.13-.094.341-.183.69-.265,1.045-.015.064-.031.128-.046.193-.085.377-.163.763-.235,1.155-.015.082-.029.165-.044.248-.071.407-.137.819-.194,1.241-.621,4.69-1.862,11.172-2.69,15.654-.179.943-.534,2.43-.931,4.16-3.875,4.9-9.115,8.047-13.274,8.047-2.69,0-3.311-1.724-3.311-4.828,9.449-2.137,12.827-6.62,12.827-12.413,0-4.827-2.62-7.1-7.379-7.1-6.066,0-13.607,8.735-14.958,18.129a40.16,40.16,0,0,1-7.386,7.111c.483-4.275,1.242-9.654,2.069-13.585,1.034-5.035,2.276-7.517,2.276-10.207,0-2.413-3.379-5.586-7.724-5.586a4.1,4.1,0,0,0-2.621.966c0,1.655-.137,4.482-.413,6.965a2.328,2.328,0,0,0-1.794-.483c-5.375,0-12.333,6.685-14.333,14.39-3.459,4.26-6.6,6.644-7.734,6.644-.621,0-.966-.276-.966-1.035,0-1.724,2.207-6.62,3.448-9.654a19.517,19.517,0,0,0,2-7.586,4.415,4.415,0,0,0-4.758-4.759c-3.034,0-7.793,3.1-12.827,11.793a25.867,25.867,0,0,0,2.758-9.93c0-2.07-.62-2.9-2.965-2.9-4.276,0-10.413,7.241-10.413,11.31a12.485,12.485,0,0,0,.479,3.7c-4.667,6.352-8.374,8.234-9.307,8.234-1.034,0-1.034-1.586-1.034-4.551a7.8,7.8,0,0,0,2.965-5.517,3,3,0,0,0-2.689-3.31c.02-.349.04-.7.061-1.06.008-.135.017-.272.025-.408.013-.218.027-.437.041-.658.01-.175.022-.351.033-.527s.023-.364.035-.547q.021-.308.042-.616c.009-.143.019-.286.029-.429.017-.239.033-.478.051-.718.005-.078.011-.155.017-.233.095-1.309.2-2.631.319-3.935l0-.02c.217-2.394.476-4.73.787-6.825h0c.061-.41.124-.809.188-1.2.008-.043.014-.087.022-.129.067-.4.137-.8.209-1.176,5.449-3.517,6.552-4.621,6.552-6a4.179,4.179,0,0,0-.062-.428c-.025-.13-.056-.261-.093-.391-.017-.06-.04-.119-.06-.179s-.047-.148-.075-.222-.053-.123-.079-.185-.06-.14-.093-.21-.065-.122-.1-.183-.073-.136-.114-.2-.076-.119-.115-.178-.087-.131-.134-.2-.088-.113-.133-.169-.1-.126-.156-.187-.1-.107-.149-.16-.117-.119-.178-.177-.11-.1-.166-.148-.132-.111-.2-.165-.12-.091-.182-.135-.148-.1-.225-.151-.129-.082-.2-.121-.164-.091-.249-.134-.139-.072-.212-.106c-.089-.041-.182-.078-.275-.116-.074-.03-.148-.06-.225-.088-.1-.035-.2-.066-.305-.1-.078-.023-.154-.048-.234-.069-.111-.029-.228-.051-.344-.075-.078-.016-.154-.034-.234-.047-.132-.022-.271-.037-.409-.052-.07-.008-.137-.019-.208-.025-.213-.017-.431-.026-.657-.026s-.462.01-.687.024l-.13.01c-.22.017-.437.039-.65.069h0c-.282.04-.557.093-.827.156l-.056.013q-.393.094-.768.22l-.056.019c-.253.087-.5.182-.741.289l-.007,0a9.07,9.07,0,0,0-1.378.764l-.069.046q-.3.205-.584.434l-.083.069c-.187.153-.37.313-.546.481-.02.019-.039.039-.06.058a11.11,11.11,0,0,0-1.064,1.193l-.037.046q-.244.322-.47.661c-.018.027-.036.052-.053.079-.146.221-.285.449-.418.682l-.059.1q-.2.347-.373.707l-.055.112c-.117.242-.229.488-.334.739-.016.037-.031.074-.047.112q-.158.381-.3.773c-.012.034-.024.068-.035.1-.095.269-.185.541-.268.817l-.019.068q-.129.434-.239.876c-6.965,10-14.275,20.758-18.275,26-4.965.276-9.034.483-12.9.552-.483-1.587-1.724-2.345-3.655-2.345-5.172,0-9.1,4.9-9.1,10.482,0,7.034,4,11.1,10.69,11.1,6.206,0,10.964-3.31,18.688-14.482,3.517-.138,8.068-.414,11.034-.69-.207,3.38-.207,4.345-.207,6.552,0,3.931,1.793,5.861,6.069,5.861,3.976,0,9.924-4.336,14.1-8.824.272,3.933,3.02,7.307,6.73,7.307,1.585,0,2.069-.206,2.758-.9a85.645,85.645,0,0,1,1.586-13.1c2.69-3.724,4.965-4.758,5.586-4.758a.732.732,0,0,1,.828.827c0,1.517-3.517,8.483-3.517,13.034,0,3.793,1.379,5.586,5.447,5.586,3.594,0,8.89-3.739,12.808-7.771.868,3.977,3.405,5.771,6.571,5.771,3.241,0,6.276-3.379,7.172-5.1-.483,5.172-1.034,9.792-1.241,11.379-.276,2-.9,2.689-1.931,2.689-2.207,0-5.31-3.517-8.138-7.861a6.132,6.132,0,0,0-5.654,6.137c0,5.448,6.689,9.448,12.275,9.448,5.447,0,11.447-3.172,12.689-12.482.206-1.311.482-2.759.482-2.759a56.736,56.736,0,0,0,8.144-7.157c1.044,4.79,4.094,7.433,9.442,7.433,4.922,0,10.608-3.305,14.74-7.13-.074.747-.12,1.456-.12,2.1,0,3.586,1.448,5.31,5.448,5.31s9.351-3.549,13.21-7.567c1.074,4.7,4.115,7.291,9.41,7.291,4.659,0,10-2.963,14.067-6.525a9.02,9.02,0,0,0,9.242,7.353c6.207,0,13.309-3.242,13.309-11.586,0-5.034-3.931-10.758-3.931-13.861C2178.768,4203.175,2179.527,4202.761,2180.975,4202.761Zm-31.308.827c.827,0,1.379.828,1.379,2.276,0,2.069-.827,4.207-4.689,4.9C2146.839,4205.933,2148.7,4203.588,2149.667,4203.588Zm-42.688,0c.828,0,1.379.828,1.379,2.276,0,2.069-.827,4.207-4.689,4.9C2104.152,4205.933,2106.014,4203.588,2106.979,4203.588Zm-116.926,17.145c-.348.352-.68.668-1,.951s-.625.532-.923.752a8.1,8.1,0,0,1-1.286.791,5.614,5.614,0,0,1-1.232.434,5.422,5.422,0,0,1-.826.119c-.139.01-.28.014-.422.014a2.617,2.617,0,0,1-1.28-.307,2.224,2.224,0,0,1-.6-.486,2.652,2.652,0,0,1-.439-.719,3.566,3.566,0,0,1-.19-.611,4.564,4.564,0,0,1-.084-.528c-.018-.187-.028-.383-.028-.59,0-.065,0-.142.007-.227s.012-.179.022-.278c.013-.131.03-.271.052-.411a4.891,4.891,0,0,1,.126-.6h1.071c1.084,0,2.209-.005,3.412-.017.8-.009,1.637-.022,2.519-.041s1.808-.046,2.791-.08C1991.135,4219.6,1990.576,4220.205,1990.053,4220.733Zm23.758-24.041c-.078.375-.155.783-.231,1.217s-.151.894-.225,1.374q-.075.48-.147.984t-.143,1.026c-.07.521-.139,1.053-.206,1.59q-.066.538-.131,1.079c-.022.18-.043.36-.064.54-.042.36-.083.719-.123,1.075s-.079.71-.117,1.059c-.057.524-.111,1.037-.163,1.533-.017.165-.034.329-.051.49q-.049.484-.095.941c-.069.683-.131,1.314-.184,1.871-.018.185-.036.362-.052.531l-.535.058-.591.058c-1.231.115-2.736.225-4.159.32l-.932.06c-.3.02-.6.038-.886.055h0c.569-.948,1.276-2.146,2.052-3.477l.594-1.021c.4-.7.819-1.416,1.239-2.147.286-.5.574-1,.861-1.5l.056-.1c.494-.866.984-1.732,1.459-2.575l.021-.038c.3-.531.59-1.052.872-1.558l.008-.015.006-.011c.341-.613.667-1.2.973-1.762l.039-.071c.141-.259.278-.51.409-.754l.069-.127c.131-.242.258-.478.377-.7Zm64.066,21.171a3.711,3.711,0,0,1-2.827,1.38c-.966,0-1.656-.345-1.656-2.9,0-3.931,2.276-9.517,6.207-11.655C2079.049,4207.933,2078.428,4213.657,2077.877,4217.863Z"
       fill="#f2f2f2" />
    <path
       id="Path_867"
       data-name="Path 867"
       d="M2075.36,4130.763h0v0Z"
       fill="#f2f2f2" />
    <path
       id="Path_883"
       data-name="Path 883"
       d="M2077.76,4112.185v-.017l-.026.017Z"
       fill="#f2f2f2" />
    <path
       id="Path_899"
       data-name="Path 899"
       d="M2100.9,4140.026v0l-.026,0Z"
       fill="#f2f2f2" />
  </g>
</svg>
