<svg xmlns="http://www.w3.org/2000/svg" viewBox="0 0 627.24 299.99"><defs><style>.cls-1{fill:#6aa078;}</style></defs><g id="Layer_2" data-name="Layer 2"><g id="Layer_1-2" data-name="Layer 1"><polygon class="cls-1" points="99.95 214.32 107.47 221.85 128.55 200.8 128.55 243.13 139.18 243.13 139.18 200.8 160.27 221.85 167.78 214.32 139.18 185.78 139.18 173.72 154.21 188.72 161.72 181.2 139.18 158.69 139.18 150.64 149.37 160.82 156.88 153.29 133.87 130.31 110.85 153.29 118.36 160.81 128.55 150.64 128.55 158.69 106.01 181.2 113.52 188.72 128.55 173.72 128.55 185.78 99.95 214.32"/><polygon class="cls-1" points="365.95 213.32 373.47 220.85 394.55 199.8 394.55 242.13 405.18 242.13 405.18 199.8 426.27 220.85 433.78 213.32 405.18 184.78 405.18 172.72 420.21 187.72 427.72 180.2 405.18 157.69 405.18 149.64 415.37 159.82 422.88 152.29 399.87 129.31 376.85 152.29 384.36 159.81 394.55 149.64 394.55 157.69 372.01 180.2 379.52 187.72 394.55 172.72 394.55 184.78 365.95 213.32"/><polygon class="cls-1" points="477.95 266.32 485.47 273.85 506.55 252.8 506.55 295.13 517.18 295.13 517.18 252.8 538.27 273.85 545.78 266.32 517.18 237.78 517.18 225.72 532.21 240.72 539.72 233.2 517.18 210.69 517.18 202.64 527.37 212.82 534.88 205.29 511.87 182.31 488.85 205.29 496.36 212.81 506.55 202.64 506.55 210.69 484.01 233.2 491.52 240.72 506.55 225.72 506.55 237.78 477.95 266.32"/><polygon class="cls-1" points="240.95 257.32 248.47 264.85 269.55 243.8 269.55 286.13 280.18 286.13 280.18 243.8 301.27 264.85 308.78 257.32 280.18 228.78 280.18 216.72 295.21 231.72 302.72 224.2 280.18 201.69 280.18 193.64 290.37 203.82 297.88 196.29 274.87 173.31 251.85 196.29 259.36 203.81 269.55 193.64 269.55 201.69 247.01 224.2 254.52 231.72 269.55 216.72 269.55 228.78 240.95 257.32"/><polygon class="cls-1" points="0 271.19 7.51 278.71 28.6 257.66 28.6 299.99 39.23 299.99 39.23 257.66 60.31 278.71 67.83 271.19 39.23 242.64 39.23 230.58 54.26 245.59 61.77 238.06 39.23 215.56 39.23 207.51 49.42 217.68 56.93 210.16 33.91 187.18 10.9 210.16 18.41 217.68 28.6 207.51 28.6 215.56 6.06 238.06 13.57 245.59 28.6 230.58 28.6 242.64 0 271.19"/><path class="cls-1" d="M593.84,61.52a28.13,28.13,0,1,0-28.12,28.13A28.15,28.15,0,0,0,593.84,61.52ZM565.72,79a17.5,17.5,0,1,1,17.49-17.5A17.52,17.52,0,0,1,565.72,79Z"/><rect class="cls-1" x="560.4" width="10.63" height="20.08"/><rect class="cls-1" x="581.4" y="11.63" width="20.09" height="10.63" transform="translate(281.11 520.72) rotate(-60.01)"/><rect class="cls-1" x="600.27" y="30.45" width="20.08" height="10.63" transform="translate(63.85 309.88) rotate(-29.99)"/><rect class="cls-1" x="607.15" y="56.21" width="20.08" height="10.63"/><rect class="cls-1" x="604.98" y="77.21" width="10.63" height="20.08" transform="translate(229.58 572.15) rotate(-60)"/><rect class="cls-1" x="586.16" y="96.04" width="10.63" height="20.09" transform="translate(26.2 309.96) rotate(-30)"/><rect class="cls-1" x="560.4" y="102.96" width="10.63" height="20.08"/><rect class="cls-1" x="529.95" y="100.78" width="20.09" height="10.63" transform="translate(178.16 520.74) rotate(-60.01)"/><rect class="cls-1" x="511.08" y="81.96" width="20.08" height="10.63" transform="translate(26.16 272.19) rotate(-29.99)"/><rect class="cls-1" x="504.19" y="56.21" width="20.08" height="10.63"/><rect class="cls-1" x="515.82" y="25.75" width="10.63" height="20.08" transform="translate(229.57 469.21) rotate(-60)"/><rect class="cls-1" x="534.68" y="6.88" width="10.63" height="20.09" transform="translate(63.89 272.27) rotate(-30)"/></g></g></svg>