<?xml version="1.0" encoding="UTF-8"?>
<svg width="63px" height="62px" viewBox="0 0 63 62" version="1.1" xmlns="http://www.w3.org/2000/svg" xmlns:xlink="http://www.w3.org/1999/xlink">
    <!-- Generator: Sketch 47.1 (45422) - http://www.bohemiancoding.com/sketch -->
    <title>Fill 59</title>
    <desc>Created with Sketch.</desc>
    <defs></defs>
    <g id="Page-1" stroke="none" stroke-width="1" fill="none" fill-rule="evenodd">
        <g id="LAForest_BrandExploration_06_separated_Mobile_VolunteerGroups-copy" transform="translate(-247.000000, -3850.000000)" fill="#F2F2F2">
            <g id="Group-61" transform="translate(247.000000, 3850.000000)">
                <path d="M40.1289,19.1133 L35.6399,19.1133 C34.9029,19.1133 33.8679,19.4813 33.8679,21.0483 L33.8679,25.2253 L40.1089,25.2253 L39.3799,32.3163 L33.8669,32.3163 L33.8669,52.5113 L25.5159,52.5113 L25.5159,32.3163 L21.5429,32.3163 L21.5429,25.2183 L25.5159,25.2183 L25.5159,20.6263 C25.5159,17.3413 27.0759,12.1983 33.9419,12.1983 L40.1289,12.2233 L40.1289,19.1133 Z M31.6129,0.2133 C14.5519,0.2133 0.7199,14.0453 0.7199,31.1063 C0.7199,48.1693 14.5519,62.0003 31.6129,62.0003 C48.6759,62.0003 62.5069,48.1693 62.5069,31.1063 C62.5069,14.0453 48.6759,0.2133 31.6129,0.2133 L31.6129,0.2133 Z" id="Fill-59"></path>
            </g>
        </g>
    </g>
</svg>