<?xml version="1.0" encoding="UTF-8"?>
<svg width="63px" height="62px" viewBox="0 0 63 62" version="1.1" xmlns="http://www.w3.org/2000/svg" xmlns:xlink="http://www.w3.org/1999/xlink">
    <!-- Generator: Sketch 47.1 (45422) - http://www.bohemiancoding.com/sketch -->
    <title>Group</title>
    <desc>Created with Sketch.</desc>
    <defs></defs>
    <g id="Page-1" stroke="none" stroke-width="1" fill="none" fill-rule="evenodd">
        <g id="LAForest_BrandExploration_06_separated_Mobile_VolunteerGroups-copy" transform="translate(-470.000000, -3850.000000)" fill="#F2F2F2">
            <g id="Group-61" transform="translate(247.000000, 3850.000000)">
                <g id="Group" transform="translate(223.000000, 0.000000)">
                    <path d="M31.6055,5.9014 C39.7955,5.9014 40.7655,5.9324 44.0015,6.0804 C46.9915,6.2164 48.6155,6.7164 49.6965,7.1364 C51.1275,7.6934 52.1505,8.3574 53.2235,9.4314 C54.2965,10.5054 54.9615,11.5264 55.5175,12.9584 C55.9385,14.0394 56.4375,15.6634 56.5745,18.6544 C56.7215,21.8884 56.7525,22.8584 56.7525,31.0494 C56.7525,39.2404 56.7215,40.2104 56.5745,43.4444 C56.4375,46.4354 55.9385,48.0594 55.5175,49.1404 C54.9615,50.5724 54.2965,51.5934 53.2235,52.6674 C52.1505,53.7414 51.1275,54.4054 49.6965,54.9624 C48.6155,55.3814 46.9915,55.8814 44.0015,56.0174 C40.7665,56.1664 39.7965,56.1974 31.6055,56.1974 C23.4145,56.1974 22.4445,56.1664 19.2095,56.0174 C16.2195,55.8814 14.5955,55.3814 13.5145,54.9624 C12.0835,54.4054 11.0605,53.7414 9.9875,52.6674 C8.9145,51.5934 8.2495,50.5724 7.6925,49.1404 C7.2725,48.0594 6.7725,46.4354 6.6365,43.4444 C6.4895,40.2104 6.4585,39.2404 6.4585,31.0494 C6.4585,22.8584 6.4895,21.8884 6.6365,18.6544 C6.7725,15.6634 7.2725,14.0394 7.6925,12.9584 C8.2495,11.5264 8.9145,10.5054 9.9875,9.4314 C11.0605,8.3574 12.0835,7.6934 13.5145,7.1364 C14.5955,6.7164 16.2195,6.2164 19.2095,6.0804 C22.4445,5.9324 23.4155,5.9014 31.6055,5.9014 M31.6055,0.3754 C23.2745,0.3754 22.2305,0.4104 18.9585,0.5594 C15.6935,0.7084 13.4625,1.2264 11.5115,1.9854 C9.4955,2.7684 7.7845,3.8184 6.0795,5.5234 C4.3745,7.2284 3.3255,8.9394 2.5415,10.9564 C1.7825,12.9074 1.2645,15.1374 1.1155,18.4024 C0.9655,21.6734 0.9305,22.7184 0.9305,31.0494 C0.9305,39.3804 0.9655,40.4244 1.1155,43.6964 C1.2645,46.9614 1.7825,49.1914 2.5415,51.1424 C3.3255,53.1594 4.3745,54.8704 6.0795,56.5754 C7.7845,58.2804 9.4955,59.3304 11.5115,60.1134 C13.4625,60.8724 15.6935,61.3904 18.9585,61.5394 C22.2305,61.6884 23.2745,61.7234 31.6055,61.7234 C39.9355,61.7234 40.9805,61.6884 44.2515,61.5394 C47.5175,61.3904 49.7475,60.8724 51.6985,60.1134 C53.7155,59.3304 55.4255,58.2804 57.1315,56.5754 C58.8365,54.8704 59.8855,53.1594 60.6695,51.1424 C61.4275,49.1914 61.9465,46.9614 62.0955,43.6964 C62.2445,40.4244 62.2805,39.3804 62.2805,31.0494 C62.2805,22.7184 62.2445,21.6734 62.0955,18.4024 C61.9465,15.1374 61.4275,12.9074 60.6695,10.9564 C59.8855,8.9394 58.8365,7.2284 57.1315,5.5234 C55.4255,3.8184 53.7155,2.7684 51.6985,1.9854 C49.7475,1.2264 47.5175,0.7084 44.2515,0.5594 C40.9805,0.4104 39.9355,0.3754 31.6055,0.3754" id="Fill-51"></path>
                    <path d="M31.6055,15.2979 C22.9065,15.2979 15.8535,22.3499 15.8535,31.0499 C15.8535,39.7489 22.9065,46.8009 31.6055,46.8009 C40.3045,46.8009 47.3575,39.7489 47.3575,31.0499 C47.3575,22.3499 40.3045,15.2979 31.6055,15.2979 M31.6055,41.2749 C25.9585,41.2749 21.3805,36.6959 21.3805,31.0499 C21.3805,25.4019 25.9585,20.8239 31.6055,20.8239 C37.2515,20.8239 41.8305,25.4019 41.8305,31.0499 C41.8305,36.6959 37.2515,41.2749 31.6055,41.2749" id="Fill-53"></path>
                </g>
            </g>
        </g>
    </g>
</svg>