<?xml version="1.0" encoding="UTF-8"?>
<svg width="63px" height="63px" viewBox="0 0 63 63" version="1.1" xmlns="http://www.w3.org/2000/svg" xmlns:xlink="http://www.w3.org/1999/xlink">
    <!-- Generator: Sketch 47.1 (45422) - http://www.bohemiancoding.com/sketch -->
    <title>Fill 57</title>
    <desc>Created with Sketch.</desc>
    <defs></defs>
    <g id="Page-1" stroke="none" stroke-width="1" fill="none" fill-rule="evenodd">
        <g id="LAForest_BrandExploration_06_separated_Mobile_VolunteerGroups-copy" transform="translate(-359.000000, -3850.000000)" fill="#F2F2F2">
            <g id="Group-61" transform="translate(247.000000, 3850.000000)">
                <path d="M137.8115,47.6787 C151.5245,47.6787 159.0235,36.3157 159.0235,26.4667 C159.0235,26.1427 159.0235,25.8177 159.0075,25.5077 C160.4605,24.4567 161.7285,23.1427 162.7335,21.6437 C161.4045,22.2307 159.9655,22.6327 158.4515,22.8187 C159.9975,21.8907 161.1715,20.4377 161.7285,18.6907 C160.2905,19.5407 158.6985,20.1587 156.9985,20.4987 C155.6365,19.0457 153.7055,18.1497 151.5555,18.1497 C147.4435,18.1497 144.1035,21.4887 144.1035,25.6017 C144.1035,26.1887 144.1655,26.7607 144.3045,27.3017 C138.1055,26.9917 132.6165,24.0247 128.9375,19.5097 C128.3035,20.6077 127.9325,21.8907 127.9325,23.2507 C127.9325,25.8327 129.2465,28.1207 131.2555,29.4497 C130.0355,29.4197 128.8905,29.0797 127.8855,28.5237 L127.8855,28.6167 C127.8855,32.2337 130.4525,35.2327 133.8695,35.9287 C133.2505,36.0987 132.5855,36.1917 131.9055,36.1917 C131.4255,36.1917 130.9625,36.1457 130.4995,36.0527 C131.4415,39.0207 134.1935,41.1697 137.4565,41.2317 C134.9055,43.2257 131.6895,44.4157 128.1955,44.4157 C127.5915,44.4157 127.0045,44.3857 126.4165,44.3087 C129.6795,46.4417 133.6065,47.6787 137.8115,47.6787 M143.2695,0.2057 C160.3735,0.2057 174.2595,14.0917 174.2595,31.1967 C174.2595,48.2997 160.3735,62.1857 143.2695,62.1857 C126.1655,62.1857 112.2805,48.2997 112.2805,31.1967 C112.2805,14.0917 126.1655,0.2057 143.2695,0.2057" id="Fill-57"></path>
            </g>
        </g>
    </g>
</svg>